<?xml version="1.0" standalone="no"?>
<!DOCTYPE svg PUBLIC "-//W3C//DTD SVG 1.1//EN" "http://www.w3.org/Graphics/SVG/1.1/DTD/svg11.dtd" >
<svg xmlns="http://www.w3.org/2000/svg">
<metadata>
This is a custom SVG webfont generated by Font Squirrel.
Copyright   : Typeface  your company 2010 All Rights Reserved
Designer    : Sean Johnson
</metadata>
<defs>
<font id="webfontV6q8jOTr" horiz-adv-x="1140" >
<font-face units-per-em="2048" ascent="1638" descent="-410" />
<missing-glyph horiz-adv-x="624" />
<glyph unicode=" "  horiz-adv-x="624" />
<glyph unicode="&#x09;" horiz-adv-x="624" />
<glyph unicode="&#xa0;" horiz-adv-x="624" />
<glyph unicode="!" horiz-adv-x="434" d="M384 1925v-192q0 -189 -53 -1037q-9 -331 -43 -331q-48 -48 -107 -58h-22q-95 19 -95 166v66q0 84 54 606q22 305 22 459v92l-6 209q66 65 119 73l53 15zM181 59q70 0 102 -57q11 -25 11 -45q0 -96 -142 -127h-51q-51 39 -51 94v23q0 94 68 102z" />
<glyph unicode="&#x22;" horiz-adv-x="704" d="M224 1985q66 -82 66 -285l-15 -418q-51 -104 -119 -104h-24q-82 20 -82 137q31 151 31 184v2q0 55 -31 309v33q0 142 168 142h6zM646 1950q8 -142 8 -287v-35q-6 -354 -31 -354q-69 -51 -92 -51q-80 0 -102 436v35q0 221 70 260q32 20 73 20q66 -2 74 -24z" />
<glyph unicode="#" horiz-adv-x="1491" d="M537 1761q60 0 129 -98l-4 -225l265 -13l18 310q33 26 66 26h18q70 0 129 -102v-121l-4 -129l260 -10q27 -35 27 -66v-30q0 -56 -103 -121h-96l-100 4l-13 -268q293 -13 293 -23l19 -49v-33q0 -55 -95 -123h-213l9 -192q-7 -127 -64 -127h-24q-72 0 -136 118 q-20 91 -20 213l-260 13l12 -201q-8 -143 -65 -143h-23q-76 0 -141 123q-15 79 -15 188v29l-4 4v4l-20 -4l-213 -8q-115 10 -115 55l-4 12v17q0 71 119 139q102 20 241 20l7 260l-228 -12q-139 6 -139 68v16q0 64 100 131q54 29 236 29h47l16 293q39 26 68 26h20zM638 946 l16 -4l248 -8l12 260l-4 4l-260 12z" />
<glyph unicode="$" horiz-adv-x="1988" d="M957 1839q56 0 101 -76l-31 -407l-4 -4q176 -31 223 -84l16 -25v-4q-100 -135 -129 -135l-18 -4l-49 8q-29 -10 -29 -51l17 -209q165 -60 524 -160q207 -61 360 -209v-4q-51 -186 -176 -282q-184 -117 -260 -117q-94 -33 -377 -56l-4 -24q0 -64 49 -264 q-63 -113 -147 -113h-12q-68 0 -146 66q-22 86 -59 344l-21 -4h-92q-295 0 -475 163q-51 64 -51 127q0 78 71 181h52q8 0 32 41q0 -9 60 -21v-33q0 -153 252 -207q61 -16 141 -16h2l4 21v34q0 181 -35 377q-57 0 -389 113q-297 129 -307 178v37l8 76v28q178 148 475 181 l201 16l55 358q33 101 84 142q29 18 41 18h43zM511 1032q26 0 186 -59l41 -4l-12 110q-211 -18 -211 -43h-4v-4zM1078 524l21 -268h4q274 0 491 131v4q-82 27 -381 146l-131 34z" />
<glyph unicode="%" horiz-adv-x="2097" d="M617 1819q109 0 273 -138q16 -43 24 -135q0 -235 -213 -389h-8q-63 12 -115 12h-104q-84 0 -100 37q-72 140 -72 303q12 222 76 222q53 18 67 18h13l28 -6q43 76 119 76h12zM2039 1579q8 0 8 -29q-907 -907 -1209 -1171l-575 -490q-45 -18 -70 -18q-96 0 -143 98v33 q0 64 252 219q133 94 563 520l541 529q250 282 360 360q109 76 236 119q20 0 37 -170zM550 1403q125 18 125 80l4 43q0 45 -37 45q-53 0 -127 -101q14 -18 35 -67zM1566 565q188 -200 188 -270v-49q0 -140 -100 -277q-78 -59 -189 -59q-207 0 -287 172q-12 41 -12 76l39 227 v45q141 135 281 135h80zM1381 283q0 -72 88 -93h8q25 17 25 39v17q0 100 -25 100h-30q-56 0 -66 -59v-4z" />
<glyph unicode="&#x26;" horiz-adv-x="1484" d="M759 1755q67 0 79 -106l5 -33q-11 -125 -33 -232q65 -20 301 -79q88 -39 88 -76v-41q0 -80 -109 -92h-45q-51 0 -227 37q-25 -43 -25 -72l5 -121q71 0 159 -84l-8 -92l8 -37q-39 0 -92 -59q-14 -13 -35 -13h-20q-12 -39 -12 -84v-30q0 -66 12 -121h12q125 0 365 88 q92 12 92 45q10 0 14 59v29l8 6h13l63 -14l16 4q41 -47 41 -109v-16q0 -219 -481 -319l-119 -13v-4q0 -49 39 -301v-18q0 -78 -75 -93q-13 0 -35 -24h-17l-45 41q-4 -29 -10 -29q-68 84 -86 236q-20 192 -59 192q-193 19 -308 68q-106 49 -188 137q0 248 324 371v4 q-72 10 -256 176v16q0 271 313 365l151 35q37 403 148 403h29zM558 987v78q0 31 -16 31q-82 0 -136 -60q86 -49 152 -49zM537 444h33v56q-2 63 -16 63q-154 -28 -193 -80l-4 -4v-4z" />
<glyph unicode="'" horiz-adv-x="364" d="M228 1972q82 0 82 -61l4 -242q0 -334 -139 -424q-55 -22 -90 -22q-15 22 -21 241l4 107q-2 184 -18 299q53 102 164 102h14z" />
<glyph unicode="(" horiz-adv-x="848" d="M759 1696q39 0 39 -76q0 -164 -252 -328q-156 -123 -156 -235q-96 -258 -96 -344v-29q0 -367 477 -739v-13q0 -145 -117 -188l-45 -4q-145 0 -362 364q-197 263 -197 539v41q0 332 236 709q217 303 436 303h37z" />
<glyph unicode=")" horiz-adv-x="843" d="M210 1636q151 0 428 -436q155 -211 155 -491v-17q0 -317 -176 -641q-235 -370 -504 -370h-12q-26 14 -26 79q14 168 51 168q160 95 332 340q0 47 79 299l13 92v29q0 373 -488 731l-12 17v28q0 115 104 164l31 8h25z" />
<glyph unicode="*" horiz-adv-x="960" d="M474 1982q39 -45 72 -155q45 -178 45 -209l252 37q18 0 30 -49v-9q0 -96 -30 -96q-43 -28 -172 -63q28 -64 180 -164l59 -60q-33 -104 -55 -104h-25q-129 0 -252 131l-71 62q-47 -21 -189 -125q-65 -35 -139 -35q-37 37 -37 80q0 63 121 159q-31 17 -176 60 q-37 31 -37 41q0 80 80 123l41 12q74 -37 147 -37q39 0 39 25l8 63l-8 197q0 96 80 116h37z" />
<glyph unicode="+" horiz-adv-x="1284" d="M697 1163q66 0 74 -98v-33l-12 -196v-131q190 20 391 20q84 -84 84 -166q-10 -84 -39 -84l-420 -35q14 -170 14 -305v-67q-69 -88 -159 -88q-88 12 -88 36l-31 412l-29 -4h-151q-199 0 -234 68q-47 71 -47 108v25q0 80 121 80q190 -17 278 -17h45l-4 164q6 244 52 244 q57 57 124 67h31z" />
<glyph unicode="," horiz-adv-x="555" d="M398 416q66 0 107 -41v-53q0 -326 -289 -590q-21 -51 -92 -51h-51q-19 0 -23 10v18q0 109 150 350q53 123 53 226l-6 84q53 47 135 47h16z" />
<glyph unicode="-" d="M335 725q198 0 731 -45q24 -33 24 -76v-4q0 -80 -79 -139l-642 31l-231 -13q-88 0 -88 70v10q0 82 88 146q53 20 148 20h49z" />
<glyph unicode="." horiz-adv-x="415" d="M251 246q114 -29 114 -101v-8q0 -110 -159 -182l-39 -4q-78 0 -113 92l-4 43q0 90 96 143l88 17h17z" />
<glyph unicode="/" horiz-adv-x="1849" d="M1703 1776q51 0 96 -56q0 -125 -121 -305q-86 -67 -184 -198q-19 -39 -811 -826q-254 -276 -369 -450q-135 -62 -151 -62h-9q-16 10 -16 29l8 41l-49 -8q-27 12 -27 34l5 5q-15 0 -25 16v8q68 180 471 625l682 667q266 277 346 404q74 76 137 76h17z" />
<glyph unicode="0" horiz-adv-x="1275" d="M553 1775q216 0 376 -219l159 -242q137 -247 137 -461q0 -313 -215 -649q-162 -204 -383 -204h-48q-284 0 -443 352q-86 211 -86 468v56q0 181 83 480q33 106 144 220l26 26q-19 13 -19 41q104 132 249 132h20zM572 1548q0 -33 -31 -33q-252 -127 -261 -669 q0 -201 72 -332q65 -208 109 -208q101 -86 187 -86q104 0 248 226q105 210 105 370v41q0 225 -293 587q-74 86 -122 97z" />
<glyph unicode="1" horiz-adv-x="524" d="M402 1793q40 0 59 -94q13 -13 13 -22q0 -42 -111 -687q-18 -104 -18 -201l25 -476q0 -278 -126 -354q0 35 -85 48q-44 147 -44 506v19q0 336 21 514v8q0 35 -82 136l-4 19v15q0 31 102 188q44 90 125 329q12 17 102 52h23z" />
<glyph unicode="2" horiz-adv-x="1519" d="M935 1652q253 0 346 -205q26 -61 26 -129v-26q0 -251 -274 -525q-186 -190 -353 -306q-97 -87 -139 -137v-4q390 -44 556 -44q74 0 271 26h3q98 0 98 -72v-29q-14 -115 -37 -115q-153 -86 -486 -86q-711 23 -711 42q-181 39 -181 90l-4 49q0 48 68 166q262 173 601 488 q218 234 291 363l-1 19v93q0 46 -67 54q-37 13 -92 15q-214 0 -372 -231q-45 -94 -54 -98q-52 -27 -107 -27q-101 8 -101 43q0 141 147 327q243 259 544 259h28z" />
<glyph unicode="3" horiz-adv-x="1519" d="M1073 1609q138 0 251 -72q3 -12 22 -33q11 -51 11 -111v-11q0 -276 -292 -478l-29 -25v-3q135 -52 324 -234q109 -135 109 -253q0 -192 -244 -324q-144 -65 -306 -65h-41q-376 0 -710 273q-95 83 -95 135q0 18 -23 90v5q0 7 39 30q38 57 63 57q67 0 272 -171 q277 -155 522 -155h44q109 0 186 99l4 29q-17 81 -216 206q-57 25 -261 71q-139 50 -139 135q0 116 310 234q72 22 159 140l-5 50l34 116q-13 9 -72 16q-94 0 -377 -147q-67 -28 -117 -28q-73 0 -87 96v15q0 18 41 64q1 58 352 207q142 42 242 42h29z" />
<glyph unicode="4" horiz-adv-x="1905" d="M1267 1572v-27q0 -13 -51 -116q-21 -58 -32 -480l-19 -103h7q83 0 389 79l109 12q111 0 185 -56q-23 0 -87 -164q-12 -18 -33 -18q-183 -39 -483 -121q-80 -7 -80 -19q-19 -50 -19 -127l38 -367v-27q0 -88 -68 -154q-19 -13 -39 -13q-81 0 -130 186q-12 67 -19 407 q-11 72 -16 72q-440 -72 -653 -72l-163 5q-53 42 -53 109v16q0 101 245 306l597 521q233 253 261 253q90 0 114 -102zM949 828l15 223q0 62 -22 120h-4q-88 -89 -302 -250q-94 -84 -122 -132q327 22 435 39z" />
<glyph unicode="5" horiz-adv-x="1466" d="M1300 1709q0 -19 60 -41q21 -13 30 -39q0 -267 -404 -267l-238 11q-63 2 -116 2q-190 0 -190 -23q-38 -77 -38 -137v-23l3 -16q320 60 519 60q311 0 407 -162q77 -63 77 -218q6 -38 6 -75q0 -171 -96 -344q-127 -235 -330 -356q-240 -140 -424 -140h-41q-228 0 -468 222 l11 91l-18 20v12q4 9 55 32q85 47 119 47q38 0 99 -96q153 -67 228 -67h8q348 65 488 288q118 127 118 276q0 34 -5 69l-39 119q-44 55 -241 55q-130 0 -411 -100q-72 -19 -124 -19h-38q-80 0 -148 59q-15 79 -15 148v31q0 164 109 407q126 65 136 65q28 0 109 -35 q308 68 484 68z" />
<glyph unicode="6" horiz-adv-x="1429" d="M752 1762q65 0 65 -26q11 -44 11 -80v-31q0 -208 -219 -389q-8 0 -8 19q-13 50 -48 50q-46 -24 -111 -122q-108 -225 -123 -461l11 -7h15q331 338 358 338q212 150 359 150h35q135 0 227 -147q55 -96 55 -249v-6q0 -313 -191 -613q-209 -247 -519 -247q-272 0 -487 208 q-132 186 -132 422v39q0 422 352 918q188 234 336 234h14zM435 409q0 -109 216 -181q48 -11 90 -11q218 0 363 256q56 114 56 235q-15 174 -60 174l-82 4q-279 0 -537 -382q-46 -67 -46 -86v-9z" />
<glyph unicode="7" horiz-adv-x="1626" d="M1418 1555v-12q0 -160 -144 -446q-19 -37 -58 -144l54 -3h162q141 0 141 -37l3 -42q0 -124 -180 -146q-76 -11 -247 -13q-50 -31 -139 -318q-90 -309 -171 -403q-72 -61 -142 -61q-96 14 -96 35q0 91 244 656l14 47q-57 29 -103 29l-147 -11q-82 0 -142 94q14 46 58 110 q0 26 118 26q132 0 311 39q71 133 71 206q35 172 68 242q-134 -11 -345 -11h-176q-190 0 -397 -29h-18q-68 0 -84 51v42q0 27 -23 39q76 54 76 79q0 14 450 48q534 47 823 47q19 -32 19 -114z" />
<glyph unicode="8" horiz-adv-x="1324" d="M586 1642q369 0 570 -176q50 -67 50 -150q0 -169 -291 -366q-67 -44 -98 -88q42 -57 204 -155q253 -144 253 -365v-16q0 -232 -260 -375q-111 -51 -223 -51h-46q-169 0 -208 72q-35 22 -148 41q-199 119 -199 325v23q0 228 207 457v4q-347 257 -347 475v26q0 120 61 193 q159 126 439 126h36zM323 1330q42 -151 177 -241l116 -84q153 93 243 179l30 37v4q-32 0 -87 105q-79 72 -208 72h-41q-140 0 -230 -68v-4zM450 375v-11q0 -79 54 -110q102 -88 234 -106q12 -7 56 -7h45q124 0 170 106l5 63q0 144 -326 306q-37 21 -94 69 q-144 -157 -144 -310z" />
<glyph unicode="9" horiz-adv-x="1104" d="M831 1664q174 -7 213 -98v-3q0 -9 -50 -57l-4 -19h4q60 -30 60 -129v-22q0 -81 -68 -409q-32 -256 -32 -393v-132q0 -312 64 -441q-46 -111 -140 -111q-109 0 -163 144q-20 118 -20 234l32 612l-4 4v3q-181 -106 -269 -143q-61 -26 -120 -26h-20q-187 0 -253 190 q-11 39 -11 77v25q0 243 295 532q190 162 442 162h44zM314 916h35q174 0 339 219l87 106v12q0 33 49 150l4 27q-41 11 -90 11q-166 0 -303 -144q-125 -151 -125 -327z" />
<glyph unicode=":" horiz-adv-x="424" d="M243 981q126 -16 126 -102v-17q0 -117 -163 -151h-31q-78 0 -125 80v38q0 132 172 152h21zM255 367q119 -27 119 -93v-24q0 -109 -156 -176l-39 -4q-106 0 -121 125q0 106 101 155z" />
<glyph unicode=";" horiz-adv-x="557" d="M339 1016q119 -15 119 -105v-18q0 -123 -172 -158h-35q-68 0 -80 49q-33 58 -33 80q0 103 135 148zM357 444q74 0 137 -45q13 -18 13 -51q0 -168 -248 -545q-35 -22 -57 -22h-23q-63 0 -129 135q94 348 143 428q64 100 160 100h4z" />
<glyph unicode="&#x37e;" horiz-adv-x="557" d="M339 1016q119 -15 119 -105v-18q0 -123 -172 -158h-35q-68 0 -80 49q-33 58 -33 80q0 103 135 148zM357 444q74 0 137 -45q13 -18 13 -51q0 -168 -248 -545q-35 -22 -57 -22h-23q-63 0 -129 135q94 348 143 428q64 100 160 100h4z" />
<glyph unicode="&#x3c;" horiz-adv-x="1161" d="M861 1206q86 -45 86 -147q0 -72 -41 -88q-156 -92 -448 -246l-97 -63v-5q213 -116 746 -528l4 -2v-25q0 -90 -137 -129l-31 -4q-115 72 -545 385q-106 70 -252 144q-96 53 -96 147v29q0 90 131 160q158 110 524 292z" />
<glyph unicode="=" horiz-adv-x="1216" d="M361 999q203 0 781 -43q24 -36 24 -63v-16q0 -78 -84 -138l-680 33l-235 -16q-117 0 -117 71v9q0 94 113 151q80 12 151 12h47zM390 563q221 0 709 -51q18 -45 18 -68q0 -86 -76 -141l-10 -4l-596 33l-221 -13q-84 11 -84 62v31q33 143 143 143z" />
<glyph unicode="&#x3e;" horiz-adv-x="1161" d="M961 819q150 -92 150 -168v-35q0 -118 -162 -180q-201 -106 -600 -411q-125 -84 -135 -84q-164 24 -164 143v8q16 21 416 316q311 221 332 221v4q-113 78 -472 264q-104 59 -104 80q-8 18 -8 55q0 105 88 144q336 -166 659 -357z" />
<glyph unicode="?" horiz-adv-x="1267" d="M437 1966q420 0 713 -268q67 -70 67 -84q0 -379 -530 -479l-285 -54q43 -344 43 -399v-20q0 -136 -35 -136q-59 -57 -147 -75q-16 2 -100 79l8 72q0 111 -101 479l-4 76q0 131 93 189q733 63 788 159q0 54 -297 158q-190 59 -303 59q-64 0 -168 -67l-33 -4q-80 0 -96 114 v21q0 43 92 125q10 31 37 31q121 24 223 24h35zM361 82q101 0 117 -84v-41q0 -125 -109 -178l-51 -8q-112 12 -112 110v8q0 144 137 189z" />
<glyph unicode="@" horiz-adv-x="1722" d="M886 1276q292 0 395 -225q88 -226 88 -406v-45q0 -205 -156 -278q-57 -23 -127 -23q-155 0 -252 295l-12 10q-164 -274 -291 -274l-22 -4q-127 16 -127 118v25q0 139 194 340q95 61 246 137q0 10 45 12h14q58 0 74 -200q43 -168 105 -209q22 -17 57 -27q68 17 68 131 l2 27q0 190 -88 324q-91 96 -228 96q-260 0 -391 -76q-194 -170 -194 -475q0 -279 217 -371q221 -88 360 -88h18q275 0 510 205q50 59 80 123q37 31 84 31q117 -15 117 -87v-4q-8 -69 -119 -200q-303 -258 -719 -258h-4q-309 0 -583 176q-197 172 -197 454v43q0 342 225 580 q142 123 592 123h19zM546 485h12q59 0 182 211q12 17 25 80l-6 6q-213 -139 -213 -286v-11z" />
<glyph unicode="A" horiz-adv-x="1939" d="M1119 1829q102 0 248 -146v-38q0 -265 180 -785l43 -4l160 8q76 0 76 -45q16 -4 16 -10q0 -104 -131 -137l-84 -21q170 -434 307 -588q105 -98 105 -188q0 -49 -50 -72q0 -12 -59 -22h-25q-129 0 -319 432q-104 182 -201 420l-123 8q-540 -33 -540 -100 q-31 -31 -152 -293q-74 -109 -164 -109h-24q-86 0 -101 45l-8 64q0 43 37 192q0 17 -201 52q-59 28 -59 63q27 57 113 96l282 84q31 8 97 117q223 352 325 588q47 110 103 284q49 105 137 105h12zM1127 1251q-159 -247 -237 -420v-4h4q59 0 319 62l58 4q-72 270 -113 328z " />
<glyph unicode="B" horiz-adv-x="1760" d="M405 1991q111 0 131 -105q0 -28 16 -28l500 -39q207 -39 293 -125q51 -52 51 -76v-4q-65 -209 -315 -383q-150 -92 -320 -213v-4l9 -8h6q344 0 460 8q386 -13 433 -84q41 -41 41 -96v-21q0 -180 -273 -391q-293 -211 -510 -299q-217 -86 -258 -86h-2q10 -27 10 -53 q0 -66 -77 -113h-103q-49 10 -86 70l-18 20l-158 -27h-20q-58 0 -111 109q-8 14 -8 55q0 72 112 92q101 7 101 27l-47 502l-115 55l-25 117v18q0 29 109 109q-6 332 -19 553l-75 -4q-185 0 -185 75q-16 50 -16 72v29q0 67 260 80l16 4v4q0 115 144 160h49zM509 1563 q11 -138 19 -369q72 33 268 164q117 84 205 168l20 33v8q-137 39 -301 39q-84 0 -211 -17v-26zM565 719l37 -414q389 146 598 301q88 70 141 139q-125 13 -221 13h-19q-209 0 -536 -17v-22z" />
<glyph unicode="C" horiz-adv-x="2156" d="M1199 1829q186 -14 186 -125v-8q0 -129 -383 -215q-194 -82 -460 -322q-203 -223 -203 -432v-35q0 -293 411 -389q109 -22 228 -22q434 0 737 282q61 41 279 260q200 176 344 176l8 -12v-6q0 -156 -172 -322q0 -22 -207 -235q-451 -424 -1032 -424q-578 0 -781 381 q-104 166 -104 350v29q0 428 629 872q323 197 491 197h29z" />
<glyph unicode="D" horiz-adv-x="1979" d="M462 1763q110 0 129 -131v-16q0 -31 -17 -84q117 -80 475 -176l633 -312q295 -155 295 -335v-21q0 -346 -815 -592l-348 -80l4 -53q0 -20 -131 -59l-37 -4q-33 0 -113 49q-45 12 -307 22q-86 23 -117 70l-12 27q31 114 88 147l41 29q143 -35 180 -35h21q-58 442 -109 768 q-20 149 -20 299q-53 43 -383 84q-162 37 -162 125v31q0 47 125 116l16 17q301 -80 379 -80v8q0 147 133 182zM554 1212q0 -385 147 -968h4q320 53 512 125q355 139 398 190q55 59 55 100v17q0 129 -428 336q-424 205 -676 205h-12v-5z" />
<glyph unicode="E" horiz-adv-x="1620" d="M1185 1817q82 0 121 -33v-33q0 -219 -506 -274q-291 -27 -291 -50q-45 -120 -45 -294v-46q479 121 717 121q180 -6 180 -24v-31q0 -27 21 -45q-50 -88 -217 -139q-140 -33 -512 -76q-99 -27 -164 -53q-6 -76 -6 -146q0 -227 69 -405l45 -96l21 -5q123 0 467 164 q356 156 567 156q149 -8 149 -25v-131q0 -10 -159 -33q-434 -106 -797 -391q-137 -88 -244 -88h-45q-149 0 -252 289q-73 184 -88 602q-69 0 -147 62v12q0 74 96 182q17 21 17 29l-5 45l13 278l4 4l-49 -4h-35q-121 0 -121 66v39q0 158 285 221q6 0 71 72q13 0 84 63h9 q100 0 186 -100h8q121 0 393 92q68 25 140 25h20z" />
<glyph unicode="F" horiz-adv-x="1493" d="M1246 1855q84 0 121 -30v-33q0 -219 -500 -276q-297 -27 -297 -48q-43 -125 -43 -297v-43q469 119 715 119q180 -6 180 -22v-33q0 -25 21 -43q-50 -90 -217 -141q-111 -27 -512 -76q-95 -25 -164 -51q-13 -187 -13 -346q0 -146 11 -267q6 -106 88 -225q12 -31 12 -55 q0 -84 -135 -109h-33q-172 0 -184 461l-21 436q-80 0 -145 55v13q0 71 96 184q17 21 17 29l-5 43l13 280l4 4l-49 -4h-35q-121 0 -121 64v41q0 155 285 219q6 0 71 72q13 0 84 63h9q100 0 188 -98h8q119 0 391 92q74 22 140 22h20z" />
<glyph unicode="G" horiz-adv-x="1636" d="M679 1985q254 0 424 -336q55 -150 55 -217q-82 -107 -96 -115q-37 -25 -51 -25h-5q-59 0 -153 211q-53 154 -139 193l-21 12q-129 -33 -190 -117q-162 -194 -162 -551v-41q0 -532 301 -899q94 -100 192 -100q226 0 412 549q37 115 76 336q-119 -17 -475 -92v12 q0 39 -78 63q-35 29 -35 52v4q0 155 383 213q205 26 393 26q60 0 60 -22q14 -64 16 -137q0 -277 -248 -836q-139 -277 -385 -383q-51 -25 -110 -25h-13q-217 0 -424 193q-356 473 -356 1003v43q0 508 260 826q160 160 340 160h29z" />
<glyph unicode="H" horiz-adv-x="1611" d="M1205 2247q119 0 135 -84q10 -13 13 -80l16 -293q0 -379 -2 -881q12 -106 29 -106q419 -51 450 -172q0 -101 -125 -101h-24q-306 11 -306 27v4l-8 -6q10 0 10 -100v-37q13 -94 54 -748l4 -45q-49 -55 -152 -55q-112 0 -112 47q-31 205 -64 745q-14 164 -24 168l-82 5 l-410 -17q18 -297 18 -381v-33q0 -186 -65 -186l-121 8l-47 -8q-43 0 -43 193q0 43 2 98q-10 287 -31 299l-26 -6l-41 -4q-146 0 -189 63q-14 21 -14 41q4 139 49 139h144q65 4 65 17q-2 534 -31 1140v9q23 282 97 282l47 4q125 -2 125 -43q26 -28 26 -79l-6 -177 q0 -315 8 -1020l13 -108h24q316 0 488 37q-17 962 -33 1231v32q0 152 102 181h37z" />
<glyph unicode="I" horiz-adv-x="405" d="M190 2005q117 0 164 -133v-14l-35 -133q-12 -98 -12 -201v-98q0 -232 17 -1161l30 -328q-45 -64 -147 -64q-109 11 -109 48q-47 1161 -47 1488q-8 0 -8 248v189q0 88 20 110q54 49 109 49h18z" />
<glyph unicode="J" horiz-adv-x="1343" d="M1088 2087q56 0 131 -53l52 -967q22 -266 22 -395q-8 -443 -203 -748q-106 -205 -268 -205h-33q-192 0 -374 244q-101 113 -213 318q-152 411 -152 600v26q0 154 84 154h37q139 0 215 -150l8 -43q0 -43 -45 -100q72 -399 322 -659l127 -84q213 202 221 714 q0 348 -51 1080l-9 110q23 139 105 158h24z" />
<glyph unicode="K" horiz-adv-x="1662" d="M482 1835q105 0 105 -61v-76q0 -41 -54 -361l-4 -88q314 131 654 357l163 125q191 -19 191 -93v-24q0 -90 -324 -260q-147 -97 -542 -316q-19 0 -142 -59l-8 -61q0 -99 150 -168q395 -310 610 -428q219 -136 321 -136q195 -4 195 -36q37 -25 37 -97q-117 -55 -223 -55 h-37q-281 0 -768 364q-207 132 -228 132l-4 -21v-18q0 -60 47 -441v-92q-39 -51 -108 -51h-23q-92 10 -96 47l-72 528q-8 252 -53 277q-20 29 -172 135q-47 51 -47 109v30q0 39 184 109l68 47l-4 82v90q0 213 76 490q32 20 71 20h37z" />
<glyph unicode="L" horiz-adv-x="1692" d="M202 1751q96 0 129 -55q16 -33 16 -51v-17l-33 -239l-8 -193q0 -272 100 -1049q176 39 408 152q528 154 823 154q115 0 189 -29l-4 -148q0 -10 -164 -28q-295 -68 -437 -96q-235 -56 -487 -152q-207 -82 -369 -121q-206 17 -206 53q-109 664 -109 1344v223l4 162 q23 12 43 63q41 27 70 27h35z" />
<glyph unicode="M" horiz-adv-x="2213" d="M1518 1987q74 -80 140 -306q63 -262 252 -772q235 -735 452 -1028q25 -37 29 -71v-13q-25 -102 -105 -102l-36 -4q-168 0 -304 362q-131 275 -423 1100l-58 145h-4q-59 -235 -143 -804q-123 -535 -123 -701q-45 -12 -45 -55q0 -14 -131 -39h-41q-45 0 -60 51 q-37 82 -67 352l-117 664q-66 268 -147 428l-17 29h-4q-70 -185 -160 -754q-45 -254 -96 -307q-45 -43 -108 -43h-27q-78 0 -78 47q-18 72 -18 139l8 238q0 41 -37 219v29q0 110 129 110l14 -4q45 94 146 498q94 291 248 291q188 0 323 -512q51 -156 131 -564h4 q72 176 129 512q93 645 176 856l101 9h67z" />
<glyph unicode="N" horiz-adv-x="1403" d="M1207 1987q103 0 141 -113l5 -29q-23 -96 -23 -149l-16 -910q0 -387 39 -737v-51q0 -180 -68 -180l-80 -8q-207 0 -410 344q-55 82 -278 487l-182 324l-4 -191q-7 -72 -7 -186q0 -166 13 -422q-6 -209 -25 -209q-45 -31 -125 -31h-18q-66 0 -76 35q-41 98 -41 205v45 q0 313 -2 676q12 143 20 428q21 158 68 223l4 4l4 -4h92l60 4q205 -217 401 -760q154 -352 293 -508l59 -63h5l24 1726q53 50 113 50h14z" />
<glyph unicode="O" horiz-adv-x="1325" d="M658 1878q381 0 588 -877q29 -161 29 -303v-16q0 -340 -150 -563q-180 -209 -399 -209h-43q-256 0 -457 301q-176 303 -176 686v61q0 478 180 781q92 94 189 110q143 29 223 29h16zM449 1501h-14q-27 -6 -57 -172q-52 -184 -52 -371v-8q0 -567 287 -729q66 -26 113 -26 h16q154 0 256 231q21 82 21 223v49q0 357 -160 709q-137 211 -225 211h-13q-61 0 -102 -127z" />
<glyph unicode="P" horiz-adv-x="1603" d="M425 1987q98 0 125 -89q0 -36 39 -36q356 -80 688 -256q276 -138 276 -371v-16q0 -265 -256 -478q-196 -145 -432 -252l-332 -75q0 -324 31 -475v-37q0 -160 -88 -193q-164 0 -201 420q0 203 -22 236l-43 -3q-27 21 -45 107l-11 12v8q0 15 111 97q-12 268 -20 764l-2 249 q-193 46 -193 78v25q41 129 55 129l144 43q45 113 153 113h23zM525 1606q-2 -297 -2 -504q0 -359 8 -436q330 92 490 188q186 113 250 311q6 19 6 54v4q0 221 -752 383z" />
<glyph unicode="Q" horiz-adv-x="1690" d="M757 1817q231 0 503 -457q273 -438 273 -701v-26q0 -187 -101 -381q86 -123 181 -180q61 -27 159 -35q45 -51 45 -141q-8 -125 -67 -136h-49q-166 0 -348 189l-99 67q-192 -112 -428 -112q-338 0 -586 205q-190 200 -190 512v43q0 430 279 956q268 197 393 197h35z M689 1409v-12q0 -66 -35 -105h-8q-18 0 -88 76q-14 12 -37 12q-133 0 -197 -684v-80q0 -350 336 -473q103 -30 193 -30q129 0 229 75q-119 160 -368 361q-205 168 -205 256v6q22 133 133 133h8q98 0 303 -239q6 0 209 -197l72 -76h4q31 0 39 184v13q0 293 -363 790 q-133 146 -241 146q16 -109 16 -156z" />
<glyph unicode="R" horiz-adv-x="1979" d="M499 1769q116 0 116 -110q150 0 975 -246q164 -59 164 -127v-8q0 -340 -467 -524q-176 -78 -297 -148q283 -135 914 -381q382 -129 507 -190v-12q0 -134 -200 -156l-47 -4q-267 0 -1078 411q-411 138 -493 138l6 -340l4 -39q0 -152 -152 -162q-71 41 -116 186l-31 394 h-133q-109 0 -109 79q0 138 213 203v4q9 140 9 537v172h-37l-205 -21q-80 11 -80 72v21q0 127 360 155h17q43 96 143 96h17zM548 1241v-80q0 -217 14 -416q471 105 666 213q161 107 231 224v4q-551 192 -633 192q-141 31 -268 31q-10 -66 -10 -168z" />
<glyph unicode="S" horiz-adv-x="1824" d="M859 1786q319 0 424 -139q10 -25 10 -41q0 -45 -110 -64q-19 -8 -84 -8l-324 8q-147 0 -330 -160q-41 -45 -88 -120q64 -93 189 -132q206 -69 663 -208q565 -174 565 -412v-29q0 -307 -788 -504q-219 -47 -387 -47q-381 0 -477 164q-25 53 -25 105q0 163 180 270 q66 33 125 33q13 -31 13 -72l-25 -201q152 -43 301 -43q381 0 690 193q53 41 92 88q-102 115 -211 160q-155 75 -729 227q-483 158 -483 377v26q0 222 373 429q188 100 391 100h45z" />
<glyph unicode="T" horiz-adv-x="1415" d="M1511 1698q141 0 182 -72l4 -33q0 -143 -579 -207l-164 5l-43 -5q-33 -229 -33 -415l37 -738v-219q0 -71 -33 -84q-111 -41 -188 -41q-93 281 -93 717q-12 164 -12 312l8 423q-57 25 -172 25l-407 -12h-72q-176 0 -176 55v25q0 79 104 147q304 53 752 53q311 0 731 60z " />
<glyph unicode="U" horiz-adv-x="1292" d="M1021 2038q41 -49 104 -260q117 -414 117 -811q0 -619 -268 -897q-174 -140 -353 -140q-270 0 -407 316q-164 317 -164 805v63q0 387 109 688q8 8 122 21q105 0 105 -101l-45 -225q-19 -154 -23 -344q0 -762 303 -967l50 -12q100 0 210 201q84 203 84 520v35 q0 612 -147 964q-8 15 -8 43v17q0 71 92 84h119z" />
<glyph unicode="V" horiz-adv-x="1530" d="M1613 2152l12 -20q0 -82 -268 -559q-97 -178 -248 -817q-156 -449 -156 -592q-39 -303 -196 -303q-70 0 -93 35q-69 112 -114 268q-66 254 -146 399q-192 318 -295 565q-59 185 -59 304v49q23 12 63 63l43 4h37q109 0 121 -67q101 -281 228 -520l196 -369q19 29 111 307 q274 875 489 1178q113 118 172 118q29 -20 103 -43z" />
<glyph unicode="W" horiz-adv-x="1833" d="M1625 2241q78 -82 117 -185q41 -463 41 -819v-29q0 -665 -117 -1241q-43 -127 -125 -172q-45 -14 -98 -14q-226 199 -306 375q-106 194 -307 700l-41 88h-4q-53 -123 -84 -571q0 -232 -67 -512q-21 -70 -37 -70l-90 -6q-121 0 -121 63q-336 885 -336 1432v59 q0 258 139 326l33 2q59 0 123 -51v-432q0 -338 78 -559h2q88 264 88 395q47 346 96 469q43 123 96 123l33 4q41 0 156 -60q254 -897 512 -1325v-4h4q100 396 100 856v164q0 365 -57 918q29 28 149 55z" />
<glyph unicode="X" horiz-adv-x="1624" d="M1570 1538l4 -25q0 -114 -181 -243q-346 -373 -446 -545l-25 -31q56 -96 244 -268q125 -92 256 -109l101 -110q0 -90 -101 -129l-45 -39q-119 0 -336 143q-90 74 -278 260q-189 -166 -269 -288q-104 -150 -168 -295q0 -17 -63 -37q-53 -33 -82 -33h-31q-84 0 -100 117v20 q0 117 209 365q229 280 274 379q-6 41 -239 288q-224 273 -224 400v37q0 86 97 139h4q164 -25 164 -64q96 -210 278 -456l96 -113h5l372 449q228 243 295 284q189 -35 189 -96z" />
<glyph unicode="Y" horiz-adv-x="1634" d="M1176 2040l41 -15h62q74 0 74 -75q59 -269 145 -957q86 -510 86 -962v-60q0 -387 -250 -729q-174 -209 -422 -209h-10q-414 0 -721 529q-131 235 -131 456v27q0 188 137 270l27 2q12 0 29 -28h20q20 0 51 -228q53 -260 113 -372q246 -439 450 -439q105 0 248 160 q191 256 191 748q-15 463 -60 504q-28 112 -76 489q-6 0 -126 -219q-248 -426 -594 -426q-226 0 -287 178q-19 78 -19 182q0 267 195 703q84 141 174 141h23q82 0 127 -70l8 -45q0 -49 -78 -176q-121 -272 -121 -508q10 -141 14 -141q168 49 353 377q75 143 155 420 q43 166 76 405q10 13 31 13l59 55h6zM484 1851l10 4v-12l-10 4v4z" />
<glyph unicode="Z" horiz-adv-x="2385" d="M2177 1759q32 0 32 -37q29 -45 29 -100v-14q-244 -156 -479 -377q-361 -361 -610 -524l-625 -467l90 -4q496 -13 891 -29l684 -80l401 -64q117 -49 117 -124v-21q0 -86 -92 -127l-47 -4q-363 96 -633 96h-18q-207 49 -785 80l-545 12q-73 7 -143 7q-215 0 -399 -66 l-62 -6h-22q-80 0 -109 84l-8 59v17q0 98 281 200q409 258 835 584q246 176 656 561h-11q-254 0 -1018 -106l-256 -54q-79 78 -79 183q0 100 88 121q43 -9 133 -9h59q182 0 756 97q420 34 620 59q197 53 252 53h17z" />
<glyph unicode="[" horiz-adv-x="1011" d="M369 1985l465 -29q27 -51 27 -98q0 -46 -63 -181q-512 -8 -512 -39q-39 -182 -39 -409q0 -158 51 -914v-92l-12 -49q59 -92 317 -92h164q155 0 155 -25q39 -57 39 -96v-29q0 -73 -39 -73q-106 -74 -331 -74h-13q-213 0 -440 45q-88 604 -88 1315v137l37 322 q0 297 102 352q58 29 142 29h38z" />
<glyph unicode="\" horiz-adv-x="1849" d="M163 1747q45 -12 159 -66q72 -139 408 -499q784 -766 784 -799q95 -119 168 -176q117 -178 117 -301q-43 -56 -96 -56h-17q-98 0 -243 220q-164 200 -797 800q-444 459 -528 631q-11 10 -68 109v20q10 17 25 17l-5 12q13 27 35 27l41 -9l-8 41q0 23 16 29h9z" />
<glyph unicode="]" horiz-adv-x="1075" d="M986 1604l39 -322v-137q0 -711 -94 -1315q-244 -45 -469 -45h-15q-239 0 -354 74q-43 0 -43 73v29q0 39 43 96q0 25 166 25h176q277 0 338 92l-12 49v92q53 787 53 914q0 217 -41 409q0 31 -549 39q-68 140 -68 181q0 47 31 98l496 29h43q88 0 149 -29q111 -55 111 -352z " />
<glyph unicode="^" horiz-adv-x="944" d="M562 1972q61 -121 303 -465q29 -41 29 -55l-21 -68l8 -32l-4 -4h-4q0 6 -28 16l-64 -21q-31 0 -147 134q-70 108 -135 172q-238 -195 -256 -310q0 -34 -142 -34l-24 -5q-27 39 -27 89v16q0 100 207 295q59 61 149 221q45 51 107 51h49z" />
<glyph unicode="_" horiz-adv-x="1890" d="M570 -213q115 0 774 -49l119 -4q82 0 252 20q125 0 125 -155q-29 -54 -137 -105q-27 -14 -99 -24q-43 4 -55 12q-76 -12 -184 -12h-68q-69 0 -702 41h-88q-178 0 -348 -37l-107 71l-2 4v21q12 33 31 33q-31 30 -31 51q0 10 12 29l-4 18q0 45 346 82z" />
<glyph unicode="`" horiz-adv-x="652" d="M246 1920q88 -155 148 -220q208 -194 208 -296v-16q0 -46 -28 -88l-24 4q-140 0 -140 36q-19 117 -256 308q-74 35 -104 204l88 120q60 0 108 -52z" />
<glyph unicode="a" horiz-adv-x="1192" d="M859 1090q78 0 105 -132q0 -69 84 -448q59 -211 172 -356q67 -101 67 -156v-25q0 -47 -59 -47q-57 -37 -78 -37q-111 41 -199 177q-45 86 -163 376l-25 31q-145 -223 -252 -346q-131 -137 -301 -137q-162 0 -211 168l-4 67q0 226 293 561q182 148 420 252q65 52 131 52 h20zM284 262h4q96 0 194 168q181 223 181 348l-4 4h-9q-71 -22 -256 -213q-114 -145 -114 -303z" />
<glyph unicode="b" horiz-adv-x="1220" d="M322 1987q72 0 84 -93v-8q0 -22 -49 -213q-55 -327 -55 -530v-29l-4 -16l4 -17v-34q0 -127 33 -261q170 207 440 207q207 -12 350 -43q45 -114 45 -221v-18q0 -359 -389 -650q-217 -131 -407 -131h-25q-135 0 -256 119q-31 103 -31 189l13 260l-25 532v47q0 199 80 754 q45 156 168 156h24zM382 207q495 78 495 416l-4 59q-92 16 -139 16q-238 0 -315 -276q-27 -82 -41 -215h4z" />
<glyph unicode="c" horiz-adv-x="1105" d="M507 948q82 0 151 -45q-8 -14 -8 -43l21 -51v-25q-35 -71 -150 -108q-117 -35 -152 -96q-43 -95 -43 -152v-25q0 -116 136 -139h57q135 0 463 148q141 59 184 59h8q70 -68 72 -102q-4 -23 -121 -133q-26 -56 -59 -56q-371 -221 -631 -221q-281 0 -377 268l-8 92v41 q0 308 252 525q100 63 192 63h13z" />
<glyph unicode="d" horiz-adv-x="1321" d="M892 1688q0 -31 51 -52q37 -26 47 -315l-2 -397q0 -287 199 -676q80 -92 80 -135l4 -29q0 -25 -68 -121h-63q-138 0 -197 184q-27 72 -92 142q-51 -133 -223 -246q-201 -102 -457 -102q-101 73 -101 79q-20 101 -20 140v24q0 115 246 369q233 197 375 215q49 23 49 68 q-45 471 -45 628v113l133 98q22 13 39 13h45zM398 184q174 0 285 277q20 41 20 63q-190 -61 -276 -209q-64 -106 -64 -127z" />
<glyph unicode="e" horiz-adv-x="1188" d="M763 793q24 -86 24 -134q0 -200 -311 -323v-4q84 -139 215 -139q182 0 387 290q127 142 193 142h8l8 -9v-41l-4 -16q2 -10 16 -14q27 0 35 43h8v-4q0 -68 -118 -224q-21 -36 -29 -79q-55 -13 -55 -45q-113 -185 -332 -261q-72 -16 -117 -16h-41q-295 0 -580 426l-20 324 v30q0 199 129 248q139 78 244 78q209 0 340 -272zM367 504q45 0 140 71q16 50 16 80q0 121 -108 168l-31 4q-62 0 -62 -39q-22 -40 -22 -116q0 -119 67 -168z" />
<glyph unicode="f" horiz-adv-x="987" d="M497 1773q369 0 519 -406q36 -106 36 -151q-28 -84 -139 -84h-45l-39 -4q-41 164 -84 239q-106 181 -196 181h-17q-114 0 -135 -211l-20 -322q129 -14 563 -31q125 -18 125 -32q0 -19 24 -47v-9q-28 0 -37 -45q-96 -71 -297 -71h-243q-82 0 -127 -17q53 -725 108 -950 l-12 -8h-4q-12 0 -41 18l-31 -76h-20q-25 0 -96 50q-48 0 -48 59q-41 121 -77 747q-15 130 -23 130l-244 43q-49 22 -57 36v115q0 12 84 25q117 53 192 53h5v4q0 541 184 743q74 21 160 21h32z" />
<glyph unicode="g" horiz-adv-x="1048" d="M679 946q194 0 295 -100q24 -8 24 -33q-37 -25 -41 -35q25 -528 25 -788q0 -502 -84 -635q-119 -246 -328 -246q-196 0 -344 158l-8 14v17q0 59 -105 188q-43 74 -43 131t31 82h17q18 0 63 -45q49 0 49 -21q37 -116 201 -231q6 0 106 -72q82 21 142 113q67 135 67 383 l-12 491l4 80q-45 -43 -184 -268q-113 -135 -223 -135h-29q-70 0 -160 92q-67 43 -67 104q-25 66 -25 156v29q0 336 344 516q129 55 252 55h33zM302 330l8 -84q109 59 189 209q86 153 155 256q-2 14 -16 14q-92 0 -223 -107q-113 -118 -113 -260v-28z" />
<glyph unicode="h" horiz-adv-x="1124" d="M273 1591q70 -32 70 -51q-66 -446 -66 -948l4 -127q68 53 189 395q51 113 100 113q74 43 101 43h20q45 0 72 -92q51 -125 110 -500q47 -186 97 -272q34 -62 104 -123v-4q-51 -74 -109 -101q-84 0 -198 101q-66 77 -109 219l-63 301q-62 -80 -189 -402q-75 -147 -151 -223 h-29q-39 0 -104 68l-39 20l4 39q0 57 -37 158q10 0 20 882q23 332 56 449q53 0 71 47v4q37 -18 58 -18q10 0 10 22h8z" />
<glyph unicode="i" horiz-adv-x="415" d="M230 1524q103 0 123 -51l12 -50q0 -77 -163 -106h-29q-119 8 -119 72l-4 16v22q31 97 156 97h24zM294 1075q47 -266 47 -559v-117l-8 -432q-33 -22 -97 -35l-30 -32h-4q-35 0 -64 53q0 -25 -8 -25q-62 54 -62 232l37 491q-8 97 -8 297q0 168 117 168q80 0 80 -41z" />
<glyph unicode="j" horiz-adv-x="474" d="M297 1438q88 0 119 -60l8 -37q0 -88 -172 -110h-29q-119 12 -119 94q0 98 160 113h33zM364 1042q47 -272 47 -712l-4 -105l9 -26q0 -594 -84 -713q-119 -277 -349 -277h-4q-202 0 -352 156q-22 23 -22 92q-150 199 -150 269v32q0 39 33 72h12q16 0 76 -47l16 -4h27 q24 -94 117 -185q69 -59 217 -151q100 35 151 135q64 146 64 395l-13 394l17 260l-8 270q0 201 116 201q84 0 84 -56z" />
<glyph unicode="k" horiz-adv-x="1352" d="M386 2048q84 -10 84 -37q20 -149 20 -366v-41q0 -287 -32 -564l460 148l123 16q94 0 142 -45q-13 -43 -13 -102l4 -4q-90 -76 -301 -138q-180 -41 -311 -96q-41 -18 -100 -63v-8q34 -68 217 -127q135 -41 198 -101h33q21 0 109 -55q358 -156 387 -217v-4q-13 0 -21 -88 q-16 -35 -88 -35l-55 -21q-438 203 -604 273q-99 37 -168 51q-25 -51 -25 -127l13 -281q0 -84 -39 -116q-13 -9 -21 -71l-63 -26l-17 -4q-75 19 -96 37q-39 80 -39 244l6 373l-4 100l-123 84l4 51l-16 60q0 53 152 149q26 0 36 938q11 172 25 172q59 41 106 41h17z" />
<glyph unicode="l" horiz-adv-x="424" d="M215 1863q76 0 76 -54q29 -129 29 -268l-29 -618v-64q0 -281 96 -770v-45q0 -79 -45 -90q-28 0 -118 -24q-23 19 -80 51q-109 582 -109 942v117q0 256 51 519q-12 0 -22 88l-33 22q25 0 43 151q70 43 125 43h16z" />
<glyph unicode="m" horiz-adv-x="1484" d="M974 911q133 -20 143 -55q66 -106 158 -387q71 -227 159 -428q0 -16 -49 -57q0 -21 -14 -21q-195 0 -260 213q-66 234 -113 311h-4q-184 -528 -268 -528h-35q-152 0 -176 313q-25 248 -41 248q-51 -55 -117 -289q-69 -264 -182 -264q-47 0 -105 41l5 21v18l-25 29 q25 78 25 155l-9 269l4 63q43 0 43 74v22q0 11 66 33q10 25 18 25l54 -21q16 2 139 144q51 41 59 41q195 0 269 -256l16 -41h8q33 63 84 213q27 53 60 80l36 -5l31 39h21z" />
<glyph unicode="n" horiz-adv-x="1116" d="M822 1122q53 -123 96 -305q82 -561 127 -735q13 0 21 -76v-8q0 -68 -88 -68h-8q-127 0 -127 47q-60 123 -97 302l-88 528h-4q-141 -172 -332 -666q-79 -161 -88 -164q0 13 -41 17h-59q-37 0 -37 37l-47 84q55 200 55 702q84 51 88 62q0 18 17 18q147 -20 147 -43l-12 -37 l4 -4h4q80 76 146 197q106 155 194 155q129 -32 129 -43z" />
<glyph unicode="o" horiz-adv-x="864" d="M507 864q205 0 284 -250q23 -67 23 -147v-37q0 -285 -217 -459q-119 -71 -211 -71h-14q-213 0 -302 272q-20 70 -20 145v21q0 184 53 344q8 14 99 51q22 19 73 90q66 41 228 41h4zM314 504l-6 -191q8 -161 72 -161q86 38 137 131q41 82 41 157v15q0 120 -88 200 q-66 0 -121 -84q-25 -30 -37 -34z" />
<glyph unicode="p" horiz-adv-x="1011" d="M222 1004q449 0 647 -173q92 -124 92 -227q0 -166 -227 -356q-180 -131 -352 -131h-13q0 -717 41 -910l-4 -4h-61q-14 -6 -19 -22q-172 43 -172 98q-65 252 -65 758l29 500q0 96 -29 188q-8 0 -12 -29h-7q-10 0 -20 35v12q0 39 43 84h-8q-15 0 -19 -22h-8v4q0 70 115 135 zM374 344q98 0 219 76q100 92 100 260q-143 113 -240 113q-59 0 -59 -33l-16 -395z" />
<glyph unicode="q" horiz-adv-x="1153" d="M722 1020q194 -23 194 -51q142 -144 142 -176q-109 -326 -109 -1059l4 -211q316 272 467 272q16 0 33 -4q14 14 129 45q0 -26 63 -33h56v-8l-17 -18q0 -21 41 -21v-8q-102 -115 -180 -139q-211 -68 -319 -184q-146 -199 -189 -250q-84 -66 -84 -146l-20 -22h-4 q0 14 -27 14v4q-29 0 -29 -31l-4 -4h-20q-15 6 -23 31l-41 -18q-84 10 -84 30q0 27 -37 41l-4 369q0 473 49 860q-278 -278 -469 -278q-77 0 -131 104q-51 33 -51 123q-6 0 -8 88v41q0 127 55 215q41 0 41 45q2 51 68 131q217 248 479 248h29zM320 264q305 166 432 492l9 28 q-39 21 -76 21h-17q-77 0 -219 -141q-32 -13 -55 -80q-96 -146 -96 -232q8 -88 22 -88z" />
<glyph unicode="r" horiz-adv-x="956" d="M843 1061q125 0 125 -57q14 -60 43 -89v-8q-356 -180 -516 -583q-76 -215 -76 -349q-119 -55 -159 -55q0 47 -101 92q0 68 -110 543q-25 98 -25 201v55q18 66 121 78h10q123 0 150 -172l-5 -66q93 80 265 277q143 133 268 133h10z" />
<glyph unicode="s" horiz-adv-x="1173" d="M570 985q146 0 162 -72q27 -67 27 -88q-27 -45 -123 -67q-289 -45 -289 -78q43 -70 215 -119q301 -69 436 -135q125 -76 125 -201q0 -205 -366 -276q-107 -19 -201 -19q-371 25 -371 86q-39 39 -39 97v20q0 76 82 139q207 -100 350 -100q115 0 189 68v4q-107 59 -414 133 q-303 88 -303 221v12q0 205 254 316q129 59 233 59h33z" />
<glyph unicode="t" horiz-adv-x="983" d="M481 1851q92 0 131 -92q-80 -493 -80 -778v-172l55 -4q178 0 393 55l68 4q92 0 92 -88q0 -131 -176 -155q-78 -21 -403 -46q0 -8 -29 -8l25 -264q0 -55 -25 -98q29 -35 29 -96v-41q0 -138 -29 -148l-105 8q-18 0 -43 -28q-108 47 -108 348q0 272 -29 272q-37 39 -256 39 q-98 0 -139 105v12q49 108 223 108q92 -2 92 -12q31 0 45 51l13 8h35l-5 54q0 348 72 899q53 67 137 67h17z" />
<glyph unicode="u" horiz-adv-x="993" d="M654 795q76 0 117 -66q33 -369 115 -606q57 -64 57 -129v-33q0 -33 -25 -51h-51q-153 0 -248 285l-28 43q-181 -199 -260 -248l-45 8q-17 0 -107 -37l-20 -4q-86 0 -105 188l-4 62v43q0 289 125 483q47 53 92 53q57 0 115 -79q0 -60 -68 -281q-12 -39 -12 -109v-16 q94 47 164 242q98 248 133 248z" />
<glyph unicode="v" horiz-adv-x="970" d="M873 993q62 0 109 -84q-31 -86 -33 -106l8 -37q-84 -70 -192 -528q-99 -308 -244 -308q-127 0 -297 332q-215 326 -215 404v32q0 123 213 123l215 -395l37 -51q121 80 207 424q67 190 112 190l43 4h37z" />
<glyph unicode="w" horiz-adv-x="1384" d="M1142 1100q96 0 137 -127l-12 -133v-52q0 -79 59 -448l8 -113q0 -194 -47 -194q-70 -49 -145 -49q-148 0 -387 264q-78 71 -121 96q-127 -330 -199 -387q-96 -78 -158 -78q-39 0 -123 158q-104 276 -104 512v47q0 221 109 293l43 10h41q79 0 92 -106l-21 -301 q0 -74 29 -107q49 23 84 102q33 113 47 113q115 41 147 64q76 -9 213 -144q166 -184 197 -184q18 96 18 180v25l-30 407q0 119 35 119q34 33 71 33h17z" />
<glyph unicode="x" horiz-adv-x="1192" d="M1013 795q86 0 120 -97l9 -32q-162 -174 -265 -240l-159 -109q118 -100 309 -241l-6 -45l6 -49q-76 -56 -135 -56q-107 0 -293 162l-86 53q-62 -10 -197 -133q-96 -94 -190 -94q-10 -35 -19 -35h-6q-33 0 -51 82v16q0 82 174 244q62 72 62 90q-35 54 -107 140 q-43 61 -43 114q0 86 55 105l88 45h17q67 0 164 -195q34 -43 55 -43q49 0 342 254q70 64 139 64h17z" />
<glyph unicode="y" horiz-adv-x="1128" d="M902 1327q57 0 92 -47q39 -737 39 -1065v-31l45 -633q-2 -395 -311 -528q-72 -22 -137 -22q-256 0 -517 303q-63 82 -63 155q47 49 100 49q39 0 164 -96q17 -14 72 -16l192 -117q37 -14 68 -14h8q125 0 164 223q20 115 20 324q0 342 -75 733q-70 -76 -209 -305 q-125 -136 -180 -136q-62 -28 -168 -28h-17q-63 0 -119 168q-20 94 -20 196q0 246 96 588q47 96 105 96h26q45 0 105 -53v-10q0 -96 -80 -414q-25 -88 -25 -207l4 -67h13q53 0 155 127q19 0 50 88q219 409 219 508q16 59 16 129v8q43 37 80 94h88z" />
<glyph unicode="z" horiz-adv-x="1317" d="M1142 971q125 -25 125 -121q0 -191 -402 -432q-197 -101 -311 -193v-4q94 -16 504 -39q104 -16 168 -37v-12q-27 -131 -64 -131q-221 -33 -428 -33h-100q-191 0 -320 37l-84 -8q-157 0 -180 92q0 25 59 139q0 25 156 105l401 239q99 74 136 113q-228 -18 -564 -33 q-59 29 -59 113q0 117 127 152l109 -17q96 0 692 70h35z" />
<glyph unicode="{" horiz-adv-x="839" d="M789 1683v-16q0 -51 -247 -119q-105 -45 -105 -176q0 -119 141 -319l17 -41q0 -58 -70 -140q-61 -57 -139 -79v-5q24 -26 147 -104q72 -66 72 -104q-16 -68 -139 -299q-31 -82 -31 -146q0 -147 211 -190q131 -27 131 -49l4 -72q-6 -55 -31 -55q-18 -9 -92 -9h-4 q-354 0 -428 228l-8 71q0 115 104 406l9 55q-138 76 -230 148q-51 63 -51 120v21q0 121 205 203l39 28q-60 148 -60 295q0 355 236 461q35 12 80 12h75q54 0 117 13q47 -78 47 -138z" />
<glyph unicode="|" horiz-adv-x="467" d="M202 1978q86 -80 127 -264l8 -67l-8 -66q32 -248 32 -543l-8 -632q0 -402 64 -740q-48 -125 -72 -155h-12q-39 20 -39 43h-4q-15 -43 -45 -43q-11 0 -31 16l-8 -8q-37 0 -50 98q-79 305 -79 809l8 815q0 270 -35 553v37q0 121 119 147h33z" />
<glyph unicode="}" horiz-adv-x="839" d="M202 1808h96q188 0 284 -280q13 -53 23 -189q0 -161 -63 -303h4q235 -116 235 -180q8 -16 8 -51v-4q0 -146 -252 -260l-32 -25q0 -18 108 -360l8 -101q0 -209 -268 -274q-61 -21 -168 -21h-4q-115 0 -115 27l-12 45q0 84 35 84q276 74 276 113q27 0 41 110 q0 105 -153 377q-19 47 -19 72q13 71 195 176l24 24v5q-131 43 -184 135q-24 61 -24 80v4q12 37 129 231q28 86 28 133q0 123 -100 168q-244 78 -252 109v43q0 59 51 125q55 -13 101 -13z" />
<glyph unicode="~" horiz-adv-x="1212" d="M748 1004q72 0 242 -115q84 -37 123 -37h24q15 0 25 -59q-6 -80 -20 -80q-45 0 -45 -49l4 -13l-4 -4h-21q-307 0 -307 92h-12q-109 0 -203 -223q-45 -76 -88 -76h-29q-203 0 -369 123q-18 78 -18 109v33q0 92 43 100l33 4q43 0 211 -78l59 -6h25l108 172q92 107 197 107 h22z" />
<glyph unicode="&#xa1;" horiz-adv-x="434" d="M50 -102v192q0 191 53 1036q10 332 45 332q47 47 105 58h24q95 -19 95 -166v-66q0 -90 -56 -604q-22 -305 -22 -461v-90l6 -211q-66 -65 -119 -74l-53 -14zM253 1763q-70 0 -101 58q-12 22 -12 47q0 94 143 125h52q49 -37 49 -95v-20q0 -94 -68 -104z" />
<glyph unicode="&#xa2;" horiz-adv-x="1661" d="M855 1235q74 0 82 -105l-13 -221l82 4q150 0 197 -65l4 -10q0 -54 -88 -99q-68 -22 -201 -22l-4 -86v-105q0 -184 29 -184l137 -2q127 0 504 57q20 0 27 -63q0 -8 -48 -49l7 -17q-177 -96 -269 -96l-100 -16q-16 -29 -29 -29l-18 2l-39 -6l-2 16q-43 -24 -88 -24h-70 l-6 -54l10 -161q0 -45 -26 -90q-158 16 -158 38q-80 48 -80 265l-4 18q0 21 -74 33q-360 80 -473 162q-94 88 -94 112q0 84 94 209q121 125 408 195l127 37l-4 4v4q0 98 57 301h25q26 0 32 45zM318 510q209 -102 279 -102l67 -15l4 37q-2 215 -8 215q-233 0 -342 -129v-6z " />
<glyph unicode="&#xa3;" horiz-adv-x="1903" d="M994 1755q86 0 105 -123v-28q0 -72 -109 -299q-20 -56 -20 -97v-4l596 109h20q88 0 88 -74v-27q0 -186 -377 -235q-264 -39 -375 -84q-45 -14 -45 -82v-39q533 100 633 100q29 -41 29 -100q0 -164 -356 -217l-306 -47q0 -70 88 -156q97 -53 197 -53h16q269 0 555 170 q164 152 226 152h8q31 -3 31 -13l-9 -88q3 -22 33 -49q-137 -180 -305 -270q-336 -201 -635 -201q-350 0 -491 420q-117 0 -437 -35q-18 55 -75 80l-4 6l12 25l-12 20q184 148 356 148q172 22 172 112v17q-336 -45 -414 -45h-59l-80 100q0 51 109 129q67 41 387 98 q133 47 133 80l76 242q40 286 75 286q56 72 144 72h20z" />
<glyph unicode="&#xa4;" horiz-adv-x="1014" d="M346 568l3 -28l-8 -170q13 -147 86 -147q103 33 167 117q51 72 51 142v12q0 108 -107 181q-80 0 -146 -74q-34 -30 -46 -33zM684 850l24 27q60 78 85 136q9 1 17 1q69 0 145 -62l11 -8q49 -40 49 -64q0 -7 -5 -13l-77 -103q-24 -30 -49 -51q24 -35 43 -78q27 -58 27 -132 v-33q0 -157 -99 -276q40 -26 78 -73l77 -102q5 -6 5 -14q0 -24 -49 -63l-11 -9q-76 -61 -144 -61q-9 0 -18 1q-25 58 -85 135l-38 42q-128 -52 -231 -52h-21q-74 0 -135 21l-1 -1q-59 -77 -85 -135q-9 -1 -17 -1q-68 0 -145 61l-11 9q-48 38 -48 63q0 8 5 14l77 102 q17 21 35 38q-22 34 -40 75q-25 66 -25 130v19q0 167 64 307q3 3 11 7q-23 20 -45 47l-77 103q-5 6 -5 14q0 24 48 63l11 8q77 62 145 62q8 0 17 -1q26 -58 85 -136l33 -35q78 30 250 30h16q55 0 103 -12z" />
<glyph unicode="&#xa5;" d="M462 905q-86 82 -187 277q-215 325 -215 403v33q0 125 213 125l215 -397l37 -52q121 80 207 424q68 193 113 193l43 4h36q62 0 109 -84q-31 -84 -33 -109l8 -36q-84 -70 -192 -529q-66 -205 -152 -272q11 -11 19 -23v-12q164 -12 383 -31q24 -33 24 -76v-4 q0 -80 -79 -139l-340 16l-7 -116q170 -11 402 -31q24 -33 24 -76v-4q0 -80 -79 -139l-359 18l-2 -47l12 -198v-33q0 -88 -67 -88h-13q-79 0 -143 88q-20 53 -20 147v49q0 39 2 95l-52 2l-198 -13h-33q-88 0 -88 68v12q0 80 88 144q53 20 148 20h49q41 0 98 -2q2 55 6 117 l-70 4l-198 -12h-33q-88 0 -88 67v12q0 80 88 144q53 20 148 20h49q51 0 123 -2z" />
<glyph unicode="&#xa6;" horiz-adv-x="467" d="M353 525q0 -372 64 -685q-48 -115 -72 -143h-12q-39 18 -39 40h-4q-15 -40 -45 -40q-11 0 -31 15l-8 -8q-37 0 -50 91q-79 282 -79 748l1 120l216 -15zM85 1339q0 234 -35 480v32q0 104 119 127h33q86 -69 127 -229l8 -58l-8 -57q32 -215 32 -471l-52 -206l-228 68z" />
<glyph unicode="&#xa7;" horiz-adv-x="1315" d="M248 954q-198 104 -198 257v23q0 189 261 364q137 85 280 85h30q231 0 309 -126q10 -20 10 -40q0 -54 -92 -71q-16 -8 -65 -8h-26l-194 7q-88 0 -200 -121q-28 -41 -53 -87q33 -58 111 -89q138 -58 447 -169q397 -149 397 -353v-25q-81 -200 -157 -286q124 -96 124 -223 v-23q0 -268 -509 -436q-141 -41 -252 -41q-256 0 -322 150q-16 45 -16 92q0 142 121 240q50 31 113 31q14 -43 14 -80l-14 -153q74 -28 161 -28q228 0 415 152q34 36 48 59q-53 80 -120 117q-24 17 -64 36q-21 8 -41 19q-120 54 -346 132q-316 133 -339 321zM889 441 q111 137 119 150q-57 77 -128 114q-97 57 -416 160q-97 -109 -116 -151q31 -60 102 -92q128 -59 415 -171q23 -9 24 -10z" />
<glyph unicode="&#xa8;" horiz-adv-x="670" d="M178 1686h11q81 -19 81 -70v-5q0 -80 -111 -128l-28 -3q-55 0 -78 64l-3 19v12q0 64 67 100zM528 1686h11q81 -19 81 -70v-5q0 -80 -111 -128l-28 -3q-55 0 -78 64l-3 19v12q0 64 67 100z" />
<glyph unicode="&#xa9;" horiz-adv-x="1825" d="M906 1525q429 0 696 -424q173 -258 173 -480v-37q0 -194 -137 -376q-110 -121 -366 -192q-154 -36 -269 -36h-54q-354 0 -624 215q-275 237 -275 567v26q0 332 198 570q118 111 199 118q185 49 447 49h12zM340 768q0 -324 319 -499q153 -65 284 -65h50q198 0 374 109 q93 58 139 222q12 64 12 106q0 236 -222 495q-153 171 -377 171q-357 0 -440 -113q-139 -170 -139 -414v-12zM990 1024l-8 -30l15 -37q0 -51 -107 -94q-73 -23 -73 -55q-23 -35 -23 -65v-18q0 -64 74 -64q73 0 241 72h37q148 0 148 -62q-37 -93 -258 -181q-118 -45 -205 -45 q-176 0 -241 167q-8 20 -8 70v18q0 195 168 330q66 32 124 32q55 0 116 -38z" />
<glyph unicode="&#xaa;" horiz-adv-x="766" d="M479 1984q62 0 80 -88q0 -36 44 -233q30 -107 87 -181q39 -58 39 -92v-13q0 -45 -47 -45q-30 -19 -55 -19q-71 26 -122 105q-25 46 -74 182q-57 -88 -115 -154q-77 -80 -178 -80q-105 0 -136 106l-2 37q0 125 160 308q100 81 225 136q39 31 84 31h10zM189 1549 q25 0 91 67q71 124 82 166q-15 -8 -111 -94q-51 -80 -62 -139z" />
<glyph unicode="&#xab;" horiz-adv-x="1137" d="M993 744q0 -23 -65 -74q-208 -156 -253 -175q4 0 180 -180q221 -231 232 -255v-9q0 -103 -111 -130q-21 0 -99 71q-221 239 -324 319q-97 54 -97 156v27q0 69 86 145q196 156 382 288q73 -48 73 -136q0 -22 -4 -47zM587 774q0 -22 -65 -73q-208 -156 -238 -175 q-5 -3 -5 -8q0 -34 170 -172q221 -232 233 -254v-10q0 -105 -111 -133q-20 0 -98 74q-214 232 -325 317q-98 50 -98 156v28q0 70 89 145q185 152 380 290q73 -53 73 -140q0 -24 -5 -45z" />
<glyph unicode="&#xac;" d="M831 669l-482 23l-231 -13q-88 0 -88 70v10q0 82 88 146q53 20 148 20h49q198 0 731 -45q24 -3 24 -41q0 -8 -1 -17q1 -9 1 -18v-4q0 -19 -5 -38l-24 -397q-32 -25 -75 -26h-8q-78 0 -137 76z" />
<glyph unicode="&#xad;" d="M335 725q198 0 731 -45q24 -33 24 -76v-4q0 -80 -79 -139l-642 31l-231 -13q-88 0 -88 70v10q0 82 88 146q53 20 148 20h49z" />
<glyph unicode="&#xae;" horiz-adv-x="1825" d="M798 924v-33q0 -86 18 -152q159 39 231 80q65 43 88 67q-213 75 -247 75q-55 14 -88 14q-2 -13 -2 -51zM1483 467q10 20 23 68q12 64 12 106q0 236 -222 495q-153 171 -377 171q-357 0 -440 -113q-139 -170 -139 -414v-12q0 -324 319 -499q153 -65 284 -65h50 q198 0 374 109q20 12 22 12q-90 12 -398 170q-131 52 -135 52l24 -140q0 -85 -104 -85q-41 24 -66 96l-31 150h-49q-88 0 -88 53q0 76 106 103q-12 51 -12 214v50l-78 -7q-57 5 -57 51v8q0 74 175 88h-9q23 41 80 41h6q74 0 74 -49q38 0 398 -104q85 -30 85 -74v-4 q0 -158 -212 -239q-54 -24 -90 -45q68 -32 351 -144q92 -31 124 -43zM906 1525q429 0 696 -424q173 -258 173 -480v-37q0 -194 -137 -376q-110 -121 -366 -192q-154 -36 -269 -36h-54q-354 0 -624 215q-275 237 -275 567v26q0 332 198 570q118 111 199 118q185 49 447 49h12 z" />
<glyph unicode="&#xaf;" horiz-adv-x="1024" d="M326 1468h30q120 0 463 -30q15 -23 15 -51v-3q0 -54 -51 -94l-404 22l-126 -9h-20q-56 0 -56 46v8q0 54 56 98q35 13 93 13z" />
<glyph unicode="&#xb0;" horiz-adv-x="554" d="M297 1618h50q18 0 86 -86q84 -84 84 -160v-10q0 -120 -80 -236q-65 -53 -153 -53h-17q-163 0 -229 143q-10 21 -10 53v13q0 24 33 186v37q115 113 236 113zM197 1344q20 -117 107 -117h15q31 19 31 61q-6 137 -31 137h-40q-82 0 -82 -81z" />
<glyph unicode="&#xb1;" horiz-adv-x="1153" d="M661 1467q66 0 74 -98v-33l-12 -196v-131q190 20 391 20q84 -84 84 -166q-10 -84 -39 -84l-420 -35q14 -170 14 -305v-67q-69 -88 -159 -88q-88 12 -88 36l-31 412l-29 -4h-151q-199 0 -234 68q-47 71 -47 108v25q0 80 121 80q190 -17 278 -17h45l-4 164q6 244 52 244 q57 57 124 67h31zM287 167q198 0 731 -45q24 -33 24 -76v-4q0 -80 -79 -139l-642 31l-231 -13q-88 0 -88 70v10q0 82 88 146q53 20 148 20h49z" />
<glyph unicode="&#xb2;" horiz-adv-x="657" d="M371 1946q141 0 192 -113q14 -33 14 -69v-13q0 -129 -139 -267q-92 -94 -173 -151l-41 -38q147 -18 226 -18q34 0 130 13h3q73 0 73 -55v-15q-9 -75 -36 -75q-74 -42 -244 -42q-370 12 -370 25q-88 19 -88 59l-2 23q0 29 38 94q130 86 293 237q103 112 135 168v51 q0 5 -14 7q-17 6 -39 6q-88 0 -157 -100q-25 -52 -37 -57q-30 -16 -65 -16q-73 6 -73 41q0 74 76 170q126 135 285 135h13z" />
<glyph unicode="&#xb3;" horiz-adv-x="578" d="M405 1902q74 0 141 -43q3 -9 12 -19q6 -30 6 -60v-5q0 -140 -145 -240q48 -8 142 -98q56 -70 56 -131q0 -101 -127 -170q-75 -34 -158 -34h-19q-188 0 -353 135q-52 46 -52 78q0 6 -11 40v5q0 13 24 27q23 34 49 34q42 0 145 -86q122 -68 230 -68h21q38 0 64 33l1 7 q-6 28 -91 81q-22 10 -118 31q-82 30 -82 83q0 67 162 129q26 8 59 52l17 31q-2 33 -2 32q0 -2 -6 -2h-6q-35 0 -164 -66q-38 -16 -67 -16q-57 0 -66 64v8q0 15 19 37q1 33 181 109q73 22 125 22h13z" />
<glyph unicode="&#xb4;" horiz-adv-x="652" d="M514 1972l88 -120q-30 -169 -104 -204q-237 -191 -256 -308q0 -36 -140 -36l-24 -4q-28 42 -28 88v16q0 102 208 296q60 65 148 220q48 52 108 52z" />
<glyph unicode="&#xb5;" horiz-adv-x="993" d="M364 797q0 -60 -68 -281q-12 -39 -12 -109v-16q94 47 164 242q98 248 133 248l55 4q76 0 117 -66q33 -369 115 -606q57 -64 57 -129v-33q0 -33 -25 -51h-51q-153 0 -248 285l-28 43q-181 -199 -260 -248q-41 -13 -74 -13q-16 0 -29 3q-3 -50 -3 -93q0 -126 26 -194v-80 q0 -84 10 -164l31 -108v-12q-41 -108 -143 -108h-16q-48 0 -113 130v154q0 202 7 202q-16 131 -16 261q0 251 59 497q16 81 45 152q20 55 43 103q0 17 31 27q40 39 78 39q57 0 115 -79z" />
<glyph unicode="&#xb6;" horiz-adv-x="1174" d="M731 1240q19 -147 19 -208l25 -500q0 -506 -56 -758q0 -55 -149 -98q-5 16 -17 22h-53l-3 4q35 193 35 910h-11q-149 0 -305 131q-197 190 -197 356q0 103 80 227q165 166 532 173q128 19 288 40q15 12 45 12h13q10 0 20 -2q3 1 7 1v-3q35 -8 76 -39q42 -214 42 -246 q0 -6 -1 -6q13 -317 13 -592q0 -589 -61 -986q-47 -32 -66 -51q-75 24 -98 24q-37 11 -37 90v45q61 375 61 628q0 77 -6 142v64l-5 614l-3 42z" />
<glyph unicode="&#xb7;" horiz-adv-x="415" d="M251 833q114 -29 114 -101v-8q0 -110 -159 -182l-39 -4q-78 0 -113 92l-4 43q0 90 96 143l88 17h17z" />
<glyph unicode="&#x2219;" horiz-adv-x="415" d="M251 833q114 -29 114 -101v-8q0 -110 -159 -182l-39 -4q-78 0 -113 92l-4 43q0 90 96 143l88 17h17z" />
<glyph unicode="&#xb8;" horiz-adv-x="640" d="M24 -212v12q0 36 112 121q34 41 34 62v12q0 8 57 12q77 -3 77 -10l57 -20l4 -2v-10q0 -155 -88 -155v-6q0 -55 215 -103q72 -23 72 -44v-14q0 -102 -118 -186q-72 -10 -104 -10h-30q-88 0 -96 22l-4 16q0 23 73 107l8 30v12l-165 55q-104 46 -104 99z" />
<glyph unicode="&#xb9;" horiz-adv-x="504" d="M353 1884q34 0 50 -42q11 -6 11 -10q0 -19 -93 -308q-16 -47 -16 -90l21 -213q0 -125 -106 -159q0 16 -71 22q-37 65 -37 226v9q0 150 17 230v4q0 15 -69 61l-3 8v7q0 14 86 84q37 41 105 148q10 7 86 23h19z" />
<glyph unicode="&#xba;" horiz-adv-x="716" d="M437 1959h4q193 0 267 -225q21 -58 21 -133v-32q0 -255 -202 -411q-111 -64 -199 -64h-13q-198 0 -281 244q-20 66 -20 130v19q0 167 50 307q10 14 92 48q17 11 70 79q60 38 211 38zM259 1664l3 -29l-7 -170q11 -146 67 -146q79 33 129 117q39 73 39 143v12 q0 108 -82 181q-62 0 -113 -76q-26 -29 -36 -32z" />
<glyph unicode="&#xbb;" horiz-adv-x="1137" d="M595 639q87 -76 87 -145v-27q0 -102 -97 -157q-114 -87 -325 -318q-78 -71 -99 -71q-111 27 -111 130v10q13 23 232 254l180 157q-45 42 -252 198q-66 51 -66 74q-4 25 -4 47q0 88 73 136q186 -132 382 -288zM998 669q89 -75 89 -145v-28q0 -106 -98 -156 q-111 -85 -325 -317q-78 -74 -97 -74q-111 28 -111 133v11q14 21 232 253l177 157q-52 50 -250 198q-65 51 -65 74q-4 21 -4 44q0 87 72 140q195 -138 380 -290z" />
<glyph unicode="&#xbc;" horiz-adv-x="1382" d="M321 1916q64 0 77 -72q8 -11 8 -25q0 -25 -56 -346q-8 -44 -8 -94l13 -234q0 -157 -162 -254q0 63 -35 70q-30 106 -30 282v10q0 168 12 256v2q0 4 -39 56l-4 26q0 28 53 111q19 37 62 165q24 25 87 47h22zM1024 839q158 0 215 -125q15 -34 15 -77v-12q0 -135 -146 -280 q-96 -96 -172 -150l-24 -23q119 1 191 1q37 0 125 12h6q98 0 98 -74v-15q-11 -93 -51 -93q-74 -43 -252 -43q-393 12 -393 30q-88 21 -88 72l-2 22q0 33 44 108q129 88 293 236q101 116 127 160v47l-31 -7q-69 0 -129 -89q-20 -43 -38 -59q-39 -26 -91 -26q-94 12 -94 60 q0 83 80 182q135 143 304 143h13zM829 1756q62 0 87 -87q0 -121 -49 -294q-35 -68 -72 -179q-12 -47 -322 -755q-102 -256 -147 -416q-72 -79 -105 -79h-27q-34 32 -50 81q-1 1 -9 25t-8 27q0 4 -1 9v13q28 163 188 579l271 610q108 256 134 367q45 99 104 99h6z" />
<glyph unicode="&#xbd;" horiz-adv-x="1720" d="M274 1916q63 0 77 -72q8 -11 8 -25q0 -25 -56 -346q-8 -44 -8 -94l13 -234q0 -157 -162 -254q0 63 -35 70q-30 106 -30 282v10q0 168 12 256v2q0 4 -39 56l-4 26q0 28 53 111q19 37 62 165q24 25 87 47h22zM1264 760v-21q0 -10 -31 -77q-10 -29 -16 -268l155 33l69 6 q88 0 105 -177q-20 -40 -60 -40q-101 -19 -268 -64q-16 -3 -24 -3l-2 -28q5 0 5 -15l24 -223q0 -67 -53 -116q-26 -22 -60 -22q-86 0 -122 140q-6 33 -7 240q-217 -40 -337 -40l-112 2q-60 48 -60 103v9q0 73 153 201l340 295q144 158 184 158q93 0 117 -93zM984 365l8 98 q-38 -36 -104 -106v-1q70 5 96 9zM829 1756q62 0 87 -87q0 -121 -49 -294q-35 -68 -72 -179q-12 -47 -322 -755q-102 -256 -147 -416q-72 -79 -105 -79h-27q-34 32 -50 81q-1 1 -9 25t-8 27q0 4 -1 9v13q28 163 188 579l271 610q108 256 134 367q45 99 104 99h6z" />
<glyph unicode="&#xbe;" horiz-adv-x="1890" d="M546 1828q78 0 161 -51q0 -11 4 -13q10 -42 10 -70v-4q0 -141 -106 -212l98 -88q58 -72 58 -135q0 -104 -133 -177q-73 -33 -159 -33h-17q-188 0 -347 131q-57 47 -57 86q0 10 -8 36v7q0 21 26 37q22 41 67 41q54 0 153 -85q103 -60 195 -60h21q21 0 32 15q-3 19 -74 60 q-13 8 -101 25q-94 35 -94 98q0 76 167 140q15 4 37 33l-1 16l5 18q-2 -4 -111 -61q-38 -20 -77 -20q-79 0 -87 81v8q0 16 18 41q6 40 184 114q71 22 124 22h12zM1544 780v-21q0 -10 -31 -77q-10 -29 -16 -268l155 33l69 6q88 0 105 -177q-20 -40 -60 -40q-101 -19 -268 -64 q-16 -3 -24 -3l-2 -28q5 0 5 -15l24 -223q0 -67 -53 -116q-26 -22 -60 -22q-86 0 -122 140q-6 33 -7 240q-217 -40 -337 -40l-112 2q-60 48 -60 103v9q0 73 153 201l340 295q144 158 184 158q93 0 117 -93zM1264 385l8 98q-38 -36 -104 -106v-1q70 5 96 9zM1129 1756 q62 0 87 -87q0 -121 -49 -294q-35 -68 -72 -179q-12 -47 -322 -755q-102 -256 -147 -416q-72 -79 -105 -79h-27q-34 32 -50 81q-1 1 -9 25t-8 27q0 4 -1 9v13q28 163 188 579l271 610q108 256 134 367q45 99 104 99h6z" />
<glyph unicode="&#xbf;" horiz-adv-x="1267" d="M830 -229q-415 0 -712 268q-68 72 -68 84q0 377 532 479l283 51q-43 348 -43 402v18q0 137 37 137q57 58 147 76q17 -6 101 -80l-8 -71q0 -113 100 -482l4 -75q0 -129 -92 -189q-733 -63 -789 -160q0 -51 295 -155q191 -60 305 -60q62 0 168 68l31 4q82 0 96 -117v-18 q0 -41 -92 -125q-8 -33 -35 -33q-125 -22 -225 -22h-35zM906 1655q-100 0 -117 84v39q0 127 109 180l51 8q113 -12 113 -113v-8q0 -139 -135 -186z" />
<glyph unicode="&#xc0;" horiz-adv-x="1643" d="M879 1828h12q106 0 248 -144v-40q0 -261 180 -784l44 -4l160 8q76 0 76 -44q16 -2 16 -12q0 -101 -132 -136l-84 -20q171 -434 308 -588q104 -99 104 -188q0 -53 -48 -72q0 -13 -60 -24h-24q-130 0 -320 432q-104 184 -200 420l-124 8q-540 -34 -540 -100 q-30 -25 -152 -292q-74 -108 -164 -108h-24q-86 0 -100 44l-8 64q0 41 36 192q0 19 -200 52q-60 29 -60 64q26 57 112 96l284 84q32 10 96 116q220 346 324 588q48 109 104 284q49 104 136 104zM899 1252q-152 -240 -236 -420v-4h4q58 0 320 60l52 4h4q-70 271 -112 328z M759 2446q88 -117 148 -165q208 -146 208 -223v-12q0 -34 -28 -66l-24 3q-140 0 -140 27q-19 88 -256 232q-74 26 -104 153l88 90q60 0 108 -39z" />
<glyph unicode="&#xc1;" horiz-adv-x="1728" d="M950 1828h12q106 0 248 -144v-40q0 -261 180 -784l44 -4l160 8q76 0 76 -44q16 -2 16 -12q0 -101 -132 -136l-84 -20q171 -434 308 -588q104 -99 104 -188q0 -53 -48 -72q0 -13 -60 -24h-24q-130 0 -320 432q-104 184 -200 420l-124 8q-540 -34 -540 -100 q-30 -25 -152 -292q-74 -108 -164 -108h-24q-86 0 -100 44l-8 64q0 41 36 192q0 19 -200 52q-60 29 -60 64q26 57 112 96l284 84q32 10 96 116q220 346 324 588q48 109 104 284q49 104 136 104zM970 1252q-152 -240 -236 -420v-4h4q58 0 320 60l52 4h4q-70 271 -112 328z M1068 2465l88 -90q-30 -127 -104 -153q-237 -144 -256 -232q0 -27 -140 -27l-24 -3q-28 32 -28 66v12q0 77 208 223q60 48 148 165q48 39 108 39z" />
<glyph unicode="&#xc2;" horiz-adv-x="1652" d="M860 1828h12q106 0 248 -144v-40q0 -261 180 -784l44 -4l160 8q76 0 76 -44q16 -2 16 -12q0 -101 -132 -136l-84 -20q171 -434 308 -588q104 -99 104 -188q0 -53 -48 -72q0 -13 -60 -24h-24q-130 0 -320 432q-104 184 -200 420l-124 8q-540 -34 -540 -100 q-30 -25 -152 -292q-74 -108 -164 -108h-24q-86 0 -100 44l-8 64q0 41 36 192q0 19 -200 52q-60 29 -60 64q26 57 112 96l284 84q32 10 96 116q220 346 324 588q48 109 104 284q49 104 136 104zM880 1252q-152 -240 -236 -420v-4h4q58 0 320 60l52 4h4q-70 271 -112 328z M865 2512h38q58 -109 243 -371q22 -33 22 -45v-3l-16 -51l-22 -16l-51 -16q-26 0 -118 106q-58 85 -109 137q-189 -153 -205 -246q0 -29 -111 -29l-20 -3q-22 34 -22 70v13q0 82 166 237q48 52 118 175q39 42 87 42z" />
<glyph unicode="&#xc3;" horiz-adv-x="1704" d="M950 1828h12q106 0 248 -144v-40q0 -261 180 -784l44 -4l160 8q76 0 76 -44q16 -2 16 -12q0 -101 -132 -136l-84 -20q171 -434 308 -588q104 -99 104 -188q0 -53 -48 -72q0 -13 -60 -24h-24q-130 0 -320 432q-104 184 -200 420l-124 8q-540 -34 -540 -100 q-30 -25 -152 -292q-74 -108 -164 -108h-24q-86 0 -100 44l-8 64q0 41 36 192q0 19 -200 52q-60 29 -60 64q26 57 112 96l284 84q32 10 96 116q220 346 324 588q48 109 104 284q49 104 136 104zM970 1252q-152 -240 -236 -420v-4h4q58 0 320 60l52 4h4q-70 271 -112 328z M963 2233h18q54 0 181 -71q63 -21 94 -21h18q12 0 18 -37q-5 -49 -15 -49q-33 0 -33 -29l3 -7l-3 -3h-15q-232 0 -232 56h-9q-83 0 -154 -136q-34 -46 -67 -46h-21q-152 0 -277 75q-15 46 -15 66v20q0 56 33 60l24 3q34 0 160 -46l45 -5h18l82 104q69 66 147 66z" />
<glyph unicode="&#xc4;" horiz-adv-x="1628" d="M874 1828h12q106 0 248 -144v-40q0 -261 180 -784l44 -4l160 8q76 0 76 -44q16 -2 16 -12q0 -101 -132 -136l-84 -20q171 -434 308 -588q104 -99 104 -188q0 -53 -48 -72q0 -13 -60 -24h-24q-130 0 -320 432q-104 184 -200 420l-124 8q-540 -34 -540 -100 q-30 -25 -152 -292q-74 -108 -164 -108h-24q-86 0 -100 44l-8 64q0 41 36 192q0 19 -200 52q-60 29 -60 64q26 57 112 96l284 84q32 10 96 116q220 346 324 588q48 109 104 284q49 104 136 104zM894 1252q-152 -240 -236 -420v-4h4q58 0 320 60l52 4h4q-70 271 -112 328z M756 2186h11q81 -19 81 -70v-5q0 -80 -111 -128l-28 -3q-55 0 -78 64l-3 19v12q0 64 67 100zM1106 2186h11q81 -19 81 -70v-5q0 -80 -111 -128l-28 -3q-55 0 -78 64l-3 19v12q0 64 67 100z" />
<glyph unicode="&#xc5;" horiz-adv-x="1718" d="M937 1252q-152 -240 -236 -420v-4h4q58 0 320 60l52 4h4q-70 271 -112 328zM853 2071q20 -117 107 -117h15q31 19 31 61q-6 137 -31 137h-40q-82 0 -82 -81zM1010 1809q76 -33 167 -125v-40q0 -261 180 -784l44 -4l160 8q76 0 76 -44q16 -2 16 -12q0 -101 -132 -136 l-84 -20q171 -434 308 -588q104 -99 104 -188q0 -53 -48 -72q0 -13 -60 -24h-24q-130 0 -320 432q-104 184 -200 420l-124 8q-540 -34 -540 -100q-30 -25 -152 -292q-74 -108 -164 -108h-24q-86 0 -100 44l-8 64q0 41 36 192q0 19 -200 52q-60 29 -60 64q26 57 112 96 l284 84q32 10 96 116q220 346 324 588q48 109 104 284q28 59 68 85q-105 26 -155 134q-10 21 -10 53v13q0 24 33 186v37q115 113 236 113h50q18 0 86 -86q84 -84 84 -160v-10q0 -120 -80 -236q-38 -31 -83 -44z" />
<glyph unicode="&#xc6;" horiz-adv-x="2637" d="M975 1252q-152 -240 -236 -420v-4h4q58 0 320 60l52 4h4q-70 271 -112 328zM1291 499l-56 133l-124 8q-540 -34 -540 -100q-30 -25 -152 -292q-144 -218 -234 -218h-24q-86 0 -100 44l-8 64q70 151 106 302q0 19 -200 52q-60 29 -60 64q26 57 112 96l284 84q32 10 96 116 q220 346 324 588q48 109 104 284q49 104 136 104h12q106 0 248 -144v-5q27 8 58 15q8 0 72 72q10 0 84 64h8q101 0 188 -100h8q117 0 392 92q69 24 140 24h20q83 0 120 -32v-32q0 -221 -504 -276q-292 -28 -292 -48q-44 -124 -44 -296v-44q474 120 716 120q180 -6 180 -24 v-32q0 -25 20 -44q-49 -87 -216 -140q-120 -28 -512 -76q-80 -20 -164 -52q72 -316 164 -552l44 -96l20 -4q127 0 468 164q358 156 568 156q148 -8 148 -24v-132q0 -9 -160 -32q-438 -109 -796 -392q-140 -88 -244 -88h-44q-153 0 -252 288q-47 118 -114 341z" />
<glyph unicode="&#xc7;" horiz-adv-x="2007" d="M895 0q-545 13 -741 380q-104 167 -104 352v28q0 428 628 872q324 196 492 196h28q188 -16 188 -124v-8q0 -130 -384 -216q-201 -83 -460 -320q-204 -226 -204 -432v-36q0 -292 412 -388q104 -24 228 -24q434 0 736 284q70 46 280 260q200 176 344 176l8 -12v-8 q0 -154 -172 -320q0 -24 -208 -236q-385 -362 -865 -415q-1 -151 -88 -151v-6q0 -55 215 -103q72 -23 72 -44v-14q0 -102 -118 -186q-72 -10 -104 -10h-30q-88 0 -96 22l-4 16q0 23 73 107l8 30v12l-165 55q-104 46 -104 99v12q0 36 112 121q15 18 23 31z" />
<glyph unicode="&#xc8;" horiz-adv-x="1751" d="M1226 1816h20q83 0 120 -32v-32q0 -221 -504 -276q-292 -28 -292 -48q-44 -124 -44 -296v-44q474 120 716 120q180 -6 180 -24v-32q0 -25 20 -44q-49 -87 -216 -140q-120 -28 -512 -76q-80 -20 -164 -52q72 -316 164 -552l44 -96l20 -4q127 0 468 164q358 156 568 156 q148 -8 148 -24v-132q0 -9 -160 -32q-438 -109 -796 -392q-140 -88 -244 -88h-44q-153 0 -252 288q-72 179 -188 604q-70 0 -148 60v12q0 74 96 184q16 18 16 28l-4 44l12 280l4 4l-48 -4h-36q-120 0 -120 64v40q0 157 284 220q8 0 72 72q10 0 84 64h8q101 0 188 -100h8 q117 0 392 92q69 24 140 24zM586 2416q88 -117 148 -165q208 -146 208 -223v-12q0 -34 -28 -66l-24 3q-140 0 -140 27q-19 88 -256 232q-74 26 -104 153l88 90q60 0 108 -39z" />
<glyph unicode="&#xc9;" horiz-adv-x="1794" d="M1226 1816h20q83 0 120 -32v-32q0 -221 -504 -276q-292 -28 -292 -48q-44 -124 -44 -296v-44q474 120 716 120q180 -6 180 -24v-32q0 -25 20 -44q-49 -87 -216 -140q-120 -28 -512 -76q-80 -20 -164 -52q72 -316 164 -552l44 -96l20 -4q127 0 468 164q358 156 568 156 q148 -8 148 -24v-132q0 -9 -160 -32q-438 -109 -796 -392q-140 -88 -244 -88h-44q-153 0 -252 288q-72 179 -188 604q-70 0 -148 60v12q0 74 96 184q16 18 16 28l-4 44l12 280l4 4l-48 -4h-36q-120 0 -120 64v40q0 157 284 220q8 0 72 72q10 0 84 64h8q101 0 188 -100h8 q117 0 392 92q69 24 140 24zM944 2485l88 -90q-30 -127 -104 -153q-237 -144 -256 -232q0 -27 -140 -27l-24 -3q-28 32 -28 66v12q0 77 208 223q60 48 148 165q48 39 108 39z" />
<glyph unicode="&#xca;" horiz-adv-x="1774" d="M1226 1816h20q83 0 120 -32v-32q0 -221 -504 -276q-292 -28 -292 -48q-44 -124 -44 -296v-44q474 120 716 120q180 -6 180 -24v-32q0 -25 20 -44q-49 -87 -216 -140q-120 -28 -512 -76q-80 -20 -164 -52q72 -316 164 -552l44 -96l20 -4q127 0 468 164q358 156 568 156 q148 -8 148 -24v-132q0 -9 -160 -32q-438 -109 -796 -392q-140 -88 -244 -88h-44q-153 0 -252 288q-72 179 -188 604q-70 0 -148 60v12q0 74 96 184q16 18 16 28l-4 44l12 280l4 4l-48 -4h-36q-120 0 -120 64v40q0 157 284 220q8 0 72 72q10 0 84 64h8q101 0 188 -100h8 q117 0 392 92q69 24 140 24zM741 2512h38q58 -109 243 -371q22 -33 22 -45v-3l-16 -51l-73 -32q-26 0 -118 106q-58 85 -109 137q-189 -153 -205 -246q0 -29 -111 -29l-20 -3q-22 34 -22 70v13q0 82 166 237q48 52 118 175q39 42 87 42z" />
<glyph unicode="&#xcb;" horiz-adv-x="1713" d="M1226 1816h20q83 0 120 -32v-32q0 -221 -504 -276q-292 -28 -292 -48q-44 -124 -44 -296v-44q474 120 716 120q180 -6 180 -24v-32q0 -25 20 -44q-49 -87 -216 -140q-120 -28 -512 -76q-80 -20 -164 -52q72 -316 164 -552l44 -96l20 -4q127 0 468 164q358 156 568 156 q148 -8 148 -24v-132q0 -9 -160 -32q-438 -109 -796 -392q-140 -88 -244 -88h-44q-153 0 -252 288q-72 179 -188 604q-70 0 -148 60v12q0 74 96 184q16 18 16 28l-4 44l12 280l4 4l-48 -4h-36q-120 0 -120 64v40q0 157 284 220q8 0 72 72q10 0 84 64h8q101 0 188 -100h8 q117 0 392 92q69 24 140 24zM518 2166h11q81 -19 81 -70v-5q0 -80 -111 -128l-28 -3q-55 0 -78 64l-3 19v12q0 64 67 100zM868 2166h11q81 -19 81 -70v-5q0 -80 -111 -128l-28 -3q-55 0 -78 64l-3 19v12q0 64 67 100z" />
<glyph unicode="&#xcc;" horiz-adv-x="662" d="M288 1982h20q119 0 164 -132v-16l-36 -132q-12 -98 -12 -200v-100q0 -288 -44 -1160l32 -328q-48 -64 -148 -64q-108 10 -108 48q12 1137 12 1488q-7 0 -8 248v188q0 87 20 112q51 48 108 48zM246 2526q88 -117 148 -165q208 -146 208 -223v-12q0 -34 -28 -66l-24 3 q-140 0 -140 27q-19 88 -256 232q-74 26 -104 153l88 90q60 0 108 -39z" />
<glyph unicode="&#xcd;" horiz-adv-x="652" d="M278 1982h20q119 0 164 -132v-16l-36 -132q-12 -98 -12 -200v-100q0 -288 -44 -1160l32 -328q-48 -64 -148 -64q-108 10 -108 48q12 1137 12 1488q-7 0 -8 248v188q0 87 20 112q51 48 108 48zM514 2605l88 -90q-30 -127 -104 -153q-237 -144 -256 -232q0 -27 -140 -27 l-24 -3q-28 32 -28 66v12q0 77 208 223q60 48 148 165q48 39 108 39z" />
<glyph unicode="&#xce;" horiz-adv-x="774" d="M348 1982h20q119 0 164 -132v-16l-36 -132q-12 -98 -12 -200v-100q0 -288 -44 -1160l32 -328q-48 -64 -148 -64q-108 10 -108 48q12 1137 12 1488q-7 0 -8 248v188q0 87 20 112q51 48 108 48zM421 2612h38q58 -109 243 -371q22 -33 22 -45v-3l-16 -51l7 -25l-3 -4h-4 q0 7 -22 13l-51 -16q-26 0 -118 106q-58 85 -109 137q-189 -153 -204 -246q0 -29 -112 -29l-19 -3q-23 34 -23 70v13q0 82 167 237q47 52 117 175q39 42 87 42z" />
<glyph unicode="&#xcf;" horiz-adv-x="672" d="M298 1982h20q119 0 164 -132v-16l-36 -132q-12 -98 -12 -200v-100q0 -288 -24 -1160l32 -328q-48 -64 -148 -64q-108 10 -108 48q-8 1137 -8 1488q-7 0 -8 248v188q0 87 20 112q51 48 108 48zM178 2346h11q81 -19 81 -70v-5q0 -80 -111 -128l-28 -3q-54 0 -78 64l-3 19 v12q0 64 67 100zM528 2346h11q81 -19 81 -70v-5q0 -80 -111 -128l-28 -3q-55 0 -78 64l-3 19v12q0 64 67 100z" />
<glyph unicode="&#xd0;" horiz-adv-x="2190" d="M108 799q17 18 40 35q56 20 148 20h48q61 0 159 -5l-19 127q-20 156 -20 300q-54 43 -104 54q-160 37 -160 124v32q0 45 124 116q37 -34 116 -34v8q0 69 132 104l32 4h20q111 0 112 -152q112 -77 476 -176l632 -312q296 -155 296 -336v-20q0 -347 -816 -592l-348 -80v-16 l4 -36q0 -22 -132 -60l-36 -4q-32 0 -112 48l-188 -6q-85 20 -116 68l-12 28q30 112 88 148l40 28q19 -6 60 -6h20l-54 396l-168 8l-200 -12h-32q-88 0 -88 68v12q0 64 58 119zM746 824q141 -9 320 -24q24 -35 24 -76v-4q0 -80 -80 -140l-224 11q32 -164 78 -347h4 q311 51 512 124q354 137 396 192q56 57 56 100v16q0 130 -428 335t-676 205h-12v-4q0 -173 30 -388z" />
<glyph unicode="&#xd1;" horiz-adv-x="1400" d="M1190 1986h16q102 0 140 -112l4 -28q-32 -92 -32 -140l-16 -920q0 -378 48 -736v-52q0 -180 -68 -180l-72 -8h-8q-206 0 -408 344q-69 101 -280 488l-92 132h-4q-56 -174 -84 -608q-5 -208 -24 -208q-47 -32 -124 -32h-20q-67 0 -76 36q-40 96 -40 204v44q0 135 88 676 q11 109 20 428q22 161 68 224l4 4l4 -4h92l60 4q111 -211 312 -760q153 -353 292 -508l60 -64h4l24 1728q52 48 112 48zM829 2313h18q54 0 181 -71q63 -21 94 -21h18q12 0 18 -37q-5 -49 -15 -49q-33 0 -33 -29l3 -7l-3 -3h-15q-232 0 -232 56h-9q-83 0 -154 -136 q-34 -46 -67 -46h-21q-152 0 -277 75q-15 46 -15 66v20q0 56 33 60l24 3q34 0 160 -46l45 -5h18l82 104q69 66 147 66z" />
<glyph unicode="&#xd2;" horiz-adv-x="1324" d="M642 1878h16q383 0 588 -876q28 -159 28 -304v-16q0 -339 -148 -564q-184 -208 -400 -208h-44q-255 0 -456 300q-176 303 -176 688v60q0 476 180 780q92 98 188 112q138 28 224 28zM514 1510l-64 12h-16q-25 -6 -76 -172q-52 -207 -52 -392q18 -613 308 -776 q66 -28 112 -28h16q156 0 256 232q40 127 40 264v48q0 356 -180 728q-136 212 -224 212h-12q-64 0 -104 -128h-4zM506 2446q88 -117 148 -165q208 -146 208 -223v-12q0 -34 -28 -66l-24 3q-140 0 -140 27q-19 88 -256 232q-74 26 -104 153l88 90q60 0 108 -39z" />
<glyph unicode="&#xd3;" horiz-adv-x="1324" d="M642 1878h16q383 0 588 -876q28 -159 28 -304v-16q0 -339 -148 -564q-184 -208 -400 -208h-44q-255 0 -456 300q-176 303 -176 688v60q0 476 180 780q92 98 188 112q138 28 224 28zM514 1510l-64 12h-16q-25 -6 -76 -172q-52 -207 -52 -392q18 -613 308 -776 q66 -28 112 -28h16q156 0 256 232q40 127 40 264v48q0 356 -180 728q-136 212 -224 212h-12q-64 0 -104 -128h-4zM704 2535l88 -90q-30 -127 -104 -153q-237 -144 -256 -232q0 -27 -140 -27l-24 -3q-28 32 -28 66v12q0 77 208 223q60 48 148 165q48 39 108 39z" />
<glyph unicode="&#xd4;" horiz-adv-x="1324" d="M642 1878h16q383 0 588 -876q28 -159 28 -304v-16q0 -339 -148 -564q-184 -208 -400 -208h-44q-255 0 -456 300q-176 303 -176 688v60q0 476 180 780q92 98 188 112q138 28 224 28zM514 1510l-64 12h-16q-25 -6 -76 -172q-52 -207 -52 -392q18 -613 308 -776 q66 -28 112 -28h16q156 0 256 232q40 127 40 264v48q0 356 -180 728q-136 212 -224 212h-12q-64 0 -104 -128h-4zM581 2542h38q58 -109 243 -371q22 -33 22 -45v-3l-16 -51l7 -25l-3 -4h-4q0 7 -22 13l-51 -16q-26 0 -118 106q-58 85 -109 137q-189 -153 -205 -246 q0 -29 -111 -29l-20 -3q-22 34 -22 70v13q0 82 166 237q48 52 118 175q39 42 87 42z" />
<glyph unicode="&#xd5;" horiz-adv-x="1324" d="M642 1878h16q383 0 588 -876q28 -159 28 -304v-16q0 -339 -148 -564q-184 -208 -400 -208h-44q-255 0 -456 300q-176 303 -176 688v60q0 476 180 780q92 98 188 112q138 28 224 28zM514 1510l-64 12h-16q-25 -6 -76 -172q-52 -207 -52 -392q18 -613 308 -776 q66 -28 112 -28h16q156 0 256 232q40 127 40 264v48q0 356 -180 728q-136 212 -224 212h-12q-64 0 -104 -128h-4zM589 2313h18q54 0 181 -71q63 -21 94 -21h18q12 0 18 -37q-5 -49 -15 -49q-33 0 -33 -29l3 -7l-3 -3h-15q-232 0 -232 56h-9q-83 0 -154 -136q-34 -46 -67 -46 h-21q-152 0 -277 75q-15 46 -15 66v20q0 56 33 60l24 3q34 0 160 -46l45 -5h18l82 104q69 66 147 66z" />
<glyph unicode="&#xd6;" horiz-adv-x="1324" d="M642 1878h16q383 0 588 -876q28 -159 28 -304v-16q0 -339 -148 -564q-184 -208 -400 -208h-44q-255 0 -456 300q-176 303 -176 688v60q0 476 180 780q92 98 188 112q138 28 224 28zM514 1510l-64 12h-16q-25 -6 -76 -172q-52 -207 -52 -392q18 -613 308 -776 q66 -28 112 -28h16q156 0 256 232q40 127 40 264v48q0 356 -180 728q-136 212 -224 212h-12q-64 0 -104 -128h-4zM408 2196h11q81 -19 81 -70v-5q0 -80 -111 -128l-28 -3q-55 0 -78 64l-3 19v12q0 64 67 100zM758 2196h11q81 -19 81 -70v-5q0 -80 -111 -128l-28 -3 q-55 0 -78 64l-3 19v12q0 64 67 100z" />
<glyph unicode="&#xd7;" horiz-adv-x="1192" d="M996 1095h18q88 0 121 -97l7 -32q-161 -175 -264 -240l-160 -108q115 -97 310 -243l-7 -45l7 -49q-76 -55 -136 -55q-103 0 -292 163l-87 52q-59 -7 -195 -132q-100 -94 -191 -94q-8 -35 -18 -35h-7q-33 0 -52 81v17q0 80 174 243q63 69 63 90q-27 44 -108 140 q-42 60 -42 114q0 87 56 105l87 45h17q67 0 164 -195q33 -42 55 -42q47 0 341 254q71 63 139 63z" />
<glyph unicode="&#xd8;" horiz-adv-x="1410" d="M915 1298q-26 64 -57 128q-136 212 -224 212h-12q-64 0 -104 -128h-4l-64 12h-16q-25 -6 -76 -172q-52 -207 -52 -392q7 -231 52 -398l46 68l509 668zM1000 1027l-476 -635l-54 -80q61 -83 144 -130q66 -28 112 -28h16q156 0 256 232q40 127 40 264v48q0 163 -38 329z M185 287q-135 274 -135 611v60q0 476 180 780q92 98 188 112q138 28 224 28h16q243 0 414 -352q71 109 102 174q55 76 102 76h12q39 0 72 -56q0 -127 -90 -304q-49 -54 -101 -136q41 -126 77 -278q28 -159 28 -304v-16q0 -339 -148 -564q-184 -208 -400 -208h-44 q-194 0 -356 173q-46 -78 -78 -143q-101 -60 -114 -60h-6q-12 7 -12 28v8l6 32l-36 -8q-21 12 -21 36l3 4q-12 0 -18 16v8q28 102 135 283z" />
<glyph unicode="&#xd9;" horiz-adv-x="1292" d="M1022 2038q39 -50 104 -260q116 -416 116 -812q0 -620 -268 -896q-173 -140 -352 -140q-268 0 -408 316q-164 318 -164 804v64q0 389 108 688q11 8 124 20q104 0 104 -100l-44 -224q-22 -172 -24 -344q0 -761 304 -968l48 -12q101 0 212 200q84 201 84 520v36 q0 612 -148 964q-8 16 -8 44v16q0 72 92 84h120zM346 2546q88 -117 148 -165q208 -146 208 -223v-12q0 -34 -28 -66l-24 3q-140 0 -140 27q-19 88 -256 232q-74 26 -104 153l88 90q60 0 108 -39z" />
<glyph unicode="&#xda;" horiz-adv-x="1292" d="M1022 2038q39 -50 104 -260q116 -416 116 -812q0 -620 -268 -896q-173 -140 -352 -140q-268 0 -408 316q-164 318 -164 804v64q0 389 108 688q11 8 124 20q104 0 104 -100l-44 -224q-22 -172 -24 -344q0 -761 304 -968l48 -12q101 0 212 200q84 201 84 520v36 q0 612 -148 964q-8 16 -8 44v16q0 72 92 84h120zM724 2565l88 -90q-30 -127 -104 -153q-237 -144 -256 -232q0 -27 -140 -27l-24 -3q-28 32 -28 66v12q0 77 208 223q60 48 148 165q48 39 108 39z" />
<glyph unicode="&#xdb;" horiz-adv-x="1292" d="M1022 2038q39 -50 104 -260q116 -416 116 -812q0 -620 -268 -896q-173 -140 -352 -140q-268 0 -408 316q-164 318 -164 804v64q0 389 108 688q11 8 124 20q104 0 104 -100l-44 -224q-22 -172 -24 -344q0 -761 304 -968l48 -12q101 0 212 200q84 201 84 520v36 q0 612 -148 964q-8 16 -8 44v16q0 72 92 84h120zM521 2652h38q58 -109 243 -371q22 -33 22 -45v-3l-16 -51l7 -25l-3 -4h-4q0 7 -22 13l-51 -16q-26 0 -118 106q-58 85 -109 137q-189 -153 -205 -246q0 -29 -111 -29l-20 -3q-22 34 -22 70v13q0 82 166 237q48 52 118 175 q39 42 87 42z" />
<glyph unicode="&#xdc;" horiz-adv-x="1292" d="M1022 2038q39 -50 104 -260q116 -416 116 -812q0 -620 -268 -896q-173 -140 -352 -140q-268 0 -408 316q-164 318 -164 804v64q0 389 108 688q11 8 124 20q104 0 104 -100l-44 -224q-22 -172 -24 -344q0 -761 304 -968l48 -12q101 0 212 200q84 201 84 520v36 q0 612 -148 964q-8 16 -8 44v16q0 72 92 84h120zM268 2196h11q81 -19 81 -70v-5q0 -80 -111 -128l-28 -3q-55 0 -78 64l-3 19v12q0 64 67 100zM618 2196h11q81 -19 81 -70v-5q0 -80 -111 -128l-28 -3q-55 0 -78 64l-3 19v12q0 64 67 100z" />
<glyph unicode="&#xdd;" horiz-adv-x="1635" d="M1170 2040h8l41 -15h60q74 0 74 -75q64 -293 146 -956q86 -511 86 -963v-60q0 -387 -250 -728q-177 -209 -422 -209h-11q-414 0 -721 527q-131 238 -131 458v27q0 187 138 269l26 3q15 0 30 -30h19q21 0 52 -227q52 -256 112 -373q247 -437 452 -437q104 0 247 160 q190 253 190 747q-17 462 -60 504q-30 123 -74 489q-6 0 -127 -220q-249 -426 -594 -426q-226 0 -288 179q-18 77 -18 183q0 269 194 702q85 142 175 142h23q81 0 127 -71l7 -44q0 -51 -78 -176q-120 -271 -120 -508q8 -142 15 -142q167 49 351 377q80 151 157 419 q41 151 75 407q10 11 30 11zM496 1856v-12l-12 4v4zM1024 2542l88 -120q-30 -169 -104 -204q-237 -191 -256 -308q0 -36 -140 -36l-24 -4q-28 42 -28 88v16q0 102 208 296q60 65 148 220q48 52 108 52z" />
<glyph unicode="&#xde;" horiz-adv-x="1183" d="M366 1047l3 -34l-8 -206q14 -177 93 -177q216 40 318 142q55 88 55 172v16q0 130 -148 217q-191 0 -263 -91q-38 -35 -50 -39zM337 367q0 -95 41 -243v-57q0 -103 -45 -117q-34 0 -125 -30q-27 28 -83 65q-112 523 -112 996v152q0 320 29 455l-33 26q25 0 46 195 q71 56 128 56h17q79 0 79 -69q29 -160 29 -347l-17 -120q13 13 27 29q86 46 403 46h5q272 0 378 -272q29 -71 29 -160v-39q0 -309 -285 -498q-156 -76 -384 -76h-19q-72 0 -108 8z" />
<glyph unicode="&#xdf;" horiz-adv-x="1505" d="M738 2081h136q213 0 315 -302l-2 -106q-57 -271 -381 -517l-37 -62v-24q0 -94 531 -290q154 -83 154 -321q0 -25 -2 -52q-18 -281 -318 -348q-79 -18 -149 -18q-193 0 -309 138l-8 49q0 81 88 140h9q103 -78 235 -78q87 11 118 145q2 8 2 18q0 131 -403 354 q-220 187 -220 295q0 90 309 401q52 74 52 123v33q0 101 -168 131q-120 -38 -227 -229q-141 -303 -141 -491v-155q0 -534 161 -1081v-41q0 -73 -107 -83h-131q-145 131 -185 975l-10 148v180q28 842 536 1044z" />
<glyph unicode="&#xe0;" horiz-adv-x="1228" d="M894 1090h20q79 0 104 -132q0 -73 84 -448q60 -213 172 -356q68 -100 68 -156v-24q0 -48 -60 -48q-59 -36 -76 -36q-111 39 -200 176q-51 97 -164 376l-24 32q-147 -229 -252 -348q-133 -136 -300 -136q-162 0 -212 168l-4 52v16q0 227 292 560q181 148 420 252 q68 52 132 52zM334 266l4 -4h4q97 0 196 168q180 224 180 348l-4 4h-8q-69 -21 -256 -212q-116 -144 -116 -304zM616 1666q88 -117 148 -165q208 -146 208 -223v-12q0 -34 -28 -66l-24 3q-140 0 -140 27q-19 88 -256 232q-74 26 -104 153l88 90q60 0 108 -39z" />
<glyph unicode="&#xe1;" horiz-adv-x="1209" d="M894 1090h20q79 0 104 -132q0 -73 84 -448q60 -213 172 -356q68 -100 68 -156v-24q0 -48 -60 -48q-59 -36 -76 -36q-111 39 -200 176q-51 97 -164 376l-24 32q-147 -229 -252 -348q-133 -136 -300 -136q-162 0 -212 168l-4 52v16q0 227 292 560q181 148 420 252 q68 52 132 52zM334 266l4 -4h4q97 0 196 168q180 224 180 348l-4 4h-8q-69 -21 -256 -212q-116 -144 -116 -304zM844 1672l88 -120q-30 -169 -104 -204q-237 -191 -256 -308q0 -36 -140 -36l-24 -4q-28 42 -28 88v16q0 102 208 296q60 65 148 220q48 52 108 52z" />
<glyph unicode="&#xe2;" horiz-adv-x="1209" d="M894 1090h20q79 0 104 -132q0 -73 84 -448q60 -213 172 -356q68 -100 68 -156v-24q0 -48 -60 -48q-59 -36 -76 -36q-111 39 -200 176q-51 97 -164 376l-24 32q-147 -229 -252 -348q-133 -136 -300 -136q-162 0 -212 168l-4 52v16q0 227 292 560q181 148 420 252 q68 52 132 52zM334 266l4 -4h4q97 0 196 168q180 224 180 348l-4 4h-8q-69 -21 -256 -212q-116 -144 -116 -304zM685 1727h38q58 -109 243 -371q22 -33 22 -45v-3l-16 -51l-22 -16l-51 -16q-26 0 -118 106q-58 85 -109 137q-189 -153 -205 -246q0 -29 -111 -29l-20 -3 q-22 34 -22 70v13q0 82 166 237q48 52 118 175q39 42 87 42z" />
<glyph unicode="&#xe3;" horiz-adv-x="1261" d="M894 1090h20q79 0 104 -132q0 -73 84 -448q60 -213 172 -356q68 -100 68 -156v-24q0 -48 -60 -48q-59 -36 -76 -36q-111 39 -200 176q-51 97 -164 376l-24 32q-147 -229 -252 -348q-133 -136 -300 -136q-162 0 -212 168l-4 52v16q0 227 292 560q181 148 420 252 q68 52 132 52zM334 266l4 -4h4q97 0 196 168q180 224 180 348l-4 4h-8q-69 -21 -256 -212q-116 -144 -116 -304zM789 1483h18q54 0 181 -71q63 -21 94 -21h18q12 0 18 -37q-5 -49 -15 -49q-33 0 -33 -29l3 -7l-3 -3h-15q-232 0 -232 56h-9q-83 0 -154 -136q-34 -46 -67 -46 h-21q-152 0 -277 75q-15 46 -15 66v20q0 56 33 60l24 3q34 0 160 -46l45 -5h18l82 104q69 66 147 66z" />
<glyph unicode="&#xe4;" horiz-adv-x="1233" d="M894 1090h20q79 0 104 -132q0 -73 84 -448q60 -213 172 -356q68 -100 68 -156v-24q0 -48 -60 -48q-59 -36 -76 -36q-111 39 -200 176q-51 97 -164 376l-24 32q-147 -229 -252 -348q-133 -136 -300 -136q-162 0 -212 168l-4 52v16q0 227 292 560q181 148 420 252 q68 52 132 52zM334 266l4 -4h4q97 0 196 168q180 224 180 348l-4 4h-8q-69 -21 -256 -212q-116 -144 -116 -304zM508 1406h11q81 -19 81 -70v-5q0 -80 -111 -128l-28 -3q-55 0 -78 64l-3 19v12q0 64 67 100zM858 1406h11q81 -19 81 -70v-5q0 -80 -111 -128l-28 -3 q-55 0 -78 64l-3 19v12q0 64 67 100z" />
<glyph unicode="&#xe5;" horiz-adv-x="1188" d="M859 1090h20q79 0 104 -132q0 -73 84 -448q60 -213 172 -356q68 -100 68 -156v-24q0 -48 -60 -48q-59 -36 -76 -36q-111 39 -200 176q-51 97 -164 376l-24 32q-147 -229 -252 -348q-133 -136 -300 -136q-162 0 -212 168l-4 52v16q0 227 292 560q181 148 420 252 q68 52 132 52zM299 266l4 -4h4q97 0 196 168q180 224 180 348l-4 4h-8q-69 -21 -256 -212q-116 -144 -116 -304zM667 1725h50q18 0 86 -86q84 -84 84 -160v-10q0 -120 -80 -236q-65 -53 -153 -53h-17q-163 0 -229 143q-10 21 -10 53v13q0 24 33 186v37q115 113 236 113z M567 1451q20 -117 107 -117h15q31 19 31 61q-6 137 -31 137h-40q-82 0 -82 -81z" />
<glyph unicode="&#xe6;" horiz-adv-x="1943" d="M314 328l4 -3h4q97 0 196 138q180 184 180 286l-4 3h-8q-69 -17 -256 -174q-116 -118 -116 -250zM1088 702q0 -120 68 -168q47 0 140 72q16 46 16 80q0 123 -108 168l-32 4q-60 0 -60 -40q-24 -41 -24 -116zM858 449q-8 15 -16 32l-24 26q-147 -185 -252 -281 q-133 -110 -300 -110q-162 0 -212 136l-4 42v13q0 183 292 452q181 120 420 204q68 42 132 42h20q12 0 23 -3q14 10 31 16q139 76 244 76q208 0 340 -272q24 -86 24 -132q0 -201 -312 -324v-4q82 -140 216 -140q180 0 388 292q124 140 192 140h8l8 -8v-40l-4 -16 q4 -13 16 -16q25 0 36 44h8v-4q0 -68 -120 -224q-18 -34 -28 -80q-56 -11 -56 -44q-110 -183 -332 -260q-66 -16 -116 -16h-40q-103 0 -206 53q-19 -8 -28 -8q-111 32 -200 142q-32 49 -88 156q-29 38 -58 81v8z" />
<glyph unicode="&#xe7;" horiz-adv-x="1034" d="M401 -39q-255 15 -343 267l-8 92v40q0 305 252 524q102 64 192 64h12q82 0 152 -44q-8 -16 -8 -44l20 -52v-24q-35 -71 -148 -108q-118 -36 -152 -96q-44 -94 -44 -152v-24q0 -119 136 -140h56q134 0 464 148q139 60 184 60h8q67 -69 72 -104q-5 -21 -120 -132 q-30 -56 -60 -56q-234 -139 -426 -190q-6 -132 -87 -132v-6q0 -55 215 -103q72 -23 72 -44v-14q0 -102 -118 -186q-72 -10 -104 -10h-30q-88 0 -96 22l-4 16q0 23 73 107l8 30v12l-165 55q-104 46 -104 99v12q0 34 101 113z" />
<glyph unicode="&#xe8;" horiz-adv-x="1124" d="M422 1064q208 0 340 -272q24 -86 24 -132q0 -201 -312 -324v-4q82 -140 216 -140q180 0 388 292q124 140 192 140h8l8 -8v-40l-4 -16q4 -13 16 -16q25 0 36 44h8v-4q0 -68 -120 -224q-18 -34 -28 -80q-56 -11 -56 -44q-110 -183 -332 -260q-66 -16 -116 -16h-40 q-293 0 -580 424v8l-20 316v32q0 198 128 248q139 76 244 76zM298 672q0 -120 68 -168q47 0 140 72q16 46 16 80q0 123 -108 168l-32 4q-60 0 -60 -40q-24 -41 -24 -116zM326 1576q88 -117 148 -165q208 -146 208 -223v-12q0 -34 -28 -66l-24 3q-140 0 -140 27 q-19 88 -256 232q-74 26 -104 153l88 90q60 0 108 -39z" />
<glyph unicode="&#xe9;" horiz-adv-x="1134" d="M422 1064q208 0 340 -272q24 -86 24 -132q0 -201 -312 -324v-4q82 -140 216 -140q180 0 388 292q124 140 192 140h8l8 -8v-40l-4 -16q4 -13 16 -16q25 0 36 44h8v-4q0 -68 -120 -224q-18 -34 -28 -80q-56 -11 -56 -44q-110 -183 -332 -260q-66 -16 -116 -16h-40 q-293 0 -580 424v8l-20 316v32q0 198 128 248q139 76 244 76zM298 672q0 -120 68 -168q47 0 140 72q16 46 16 80q0 123 -108 168l-32 4q-60 0 -60 -40q-24 -41 -24 -116zM584 1605l88 -90q-30 -127 -104 -153q-237 -144 -256 -232q0 -27 -140 -27l-24 -3q-28 32 -28 66v12 q0 77 208 223q60 48 148 165q48 39 108 39z" />
<glyph unicode="&#xea;" horiz-adv-x="1117" d="M422 1064q208 0 340 -272q24 -86 24 -132q0 -201 -312 -324v-4q82 -140 216 -140q180 0 388 292q124 140 192 140h8l8 -8v-40l-4 -16q4 -13 16 -16q25 0 36 44h8v-4q0 -68 -120 -224q-18 -34 -28 -80q-56 -11 -56 -44q-110 -183 -332 -260q-66 -16 -116 -16h-40 q-293 0 -580 424v8l-20 316v32q0 198 128 248q139 76 244 76zM298 672q0 -120 68 -168q47 0 140 72q16 46 16 80q0 123 -108 168l-32 4q-60 0 -60 -40q-24 -41 -24 -116zM461 1662h38q58 -109 243 -371q22 -33 22 -45v-3l-16 -51l7 -25l-3 -4h-4q0 7 -22 13l-51 -16 q-26 0 -118 106q-58 85 -109 137q-189 -153 -205 -246q0 -29 -111 -29l-20 -3q-22 34 -22 70v13q0 82 166 237q48 52 118 175q39 42 87 42z" />
<glyph unicode="&#xeb;" horiz-adv-x="1131" d="M422 1064q208 0 340 -272q24 -86 24 -132q0 -201 -312 -324v-4q82 -140 216 -140q180 0 388 292q124 140 192 140h8l8 -8v-40l-4 -16q4 -13 16 -16q25 0 36 44h8v-4q0 -68 -120 -224q-18 -34 -28 -80q-56 -11 -56 -44q-110 -183 -332 -260q-66 -16 -116 -16h-40 q-293 0 -580 424v8l-20 316v32q0 198 128 248q139 76 244 76zM298 672q0 -120 68 -168q47 0 140 72q16 46 16 80q0 123 -108 168l-32 4q-60 0 -60 -40q-24 -41 -24 -116zM228 1366h11q81 -19 81 -70v-5q0 -80 -111 -128l-28 -3q-55 0 -78 64l-3 19v12q0 64 67 100zM578 1366 h11q81 -19 81 -70v-5q0 -80 -111 -128l-28 -3q-55 0 -78 64l-3 19v12q0 64 67 100z" />
<glyph unicode="&#xec;" horiz-adv-x="652" d="M304 1116q80 0 80 -40q48 -261 48 -560v-116l-8 -432q-31 -24 -96 -36l-32 -32h-4q-35 0 -64 52q0 -24 -8 -24q-60 53 -60 232l36 492q-8 105 -8 296q0 168 116 168zM246 1606q88 -117 148 -165q208 -146 208 -223v-12q0 -34 -28 -66l-24 3q-140 0 -140 27 q-19 88 -256 232q-74 26 -104 153l88 90q60 0 108 -39z" />
<glyph unicode="&#xed;" horiz-adv-x="652" d="M304 1116q80 0 80 -40q48 -261 48 -560v-116l-8 -432q-31 -24 -96 -36l-32 -32h-4q-35 0 -64 52q0 -24 -8 -24q-60 53 -60 232l36 492q-8 105 -8 296q0 168 116 168zM514 1645l88 -90q-30 -127 -104 -153q-237 -144 -256 -232q0 -27 -140 -27l-24 -3q-28 32 -28 66v12 q0 77 208 223q60 48 148 165q48 39 108 39z" />
<glyph unicode="&#xee;" horiz-adv-x="774" d="M394 1116q80 0 80 -40q48 -261 48 -560v-116l-8 -432q-31 -24 -96 -36l-32 -32h-4q-35 0 -64 52q0 -24 -8 -24q-60 53 -60 232l36 492q-8 105 -8 296q0 168 116 168zM421 1672h38q58 -109 243 -371q22 -33 22 -45v-3l-16 -51l7 -25l-3 -4h-4q0 7 -22 13l-51 -16 q-26 0 -118 106q-58 85 -109 137q-189 -153 -205 -246q0 -29 -111 -29l-19 -3q-23 34 -23 70v13q0 82 166 237q48 52 118 175q39 42 87 42z" />
<glyph unicode="&#xef;" horiz-adv-x="670" d="M294 1116q80 0 80 -40q48 -261 48 -560v-116l-8 -432q-31 -24 -96 -36l-32 -32h-4q-35 0 -64 52q0 -24 -8 -24q-60 53 -60 232l36 492q-8 105 -8 296q0 168 116 168zM178 1446h11q81 -19 81 -70v-5q0 -80 -111 -128l-28 -3q-54 0 -78 64l-3 19v12q0 64 67 100zM528 1446 h11q81 -19 81 -70v-5q0 -80 -111 -128l-28 -3q-55 0 -78 64l-3 19v12q0 64 67 100z" />
<glyph unicode="&#xf0;" horiz-adv-x="1094" d="M338 504l-11 -191q15 -161 132 -161q158 38 251 131q75 82 75 157v15q0 120 -161 200q-121 0 -222 -84q-46 -30 -68 -34zM1042 511q2 -21 2 -44v-37q0 -285 -284 -459q-156 -71 -277 -71h-18q-279 0 -396 272q-26 70 -26 145v21q0 184 69 344q11 14 130 51q29 19 96 90 q86 41 299 41h25q-68 113 -175 200l-112 -71l-150 -119q-28 -19 -50 -19q-25 0 -43 25l-5 7q-22 31 -22 72q0 31 13 68q26 39 90 84l33 23l66 44q-108 52 -239 88l-11 43q-5 23 -5 42q0 41 28 56q27 7 109 51q27 -13 90 -30q145 -22 269 -101l209 123q32 -11 52 -40l2 -3 q23 -32 23 -72q0 -28 -11 -59l-123 -77q187 -199 315 -562l27 -114v-12z" />
<glyph unicode="&#xf1;" horiz-adv-x="1116" d="M694 1166q128 -33 128 -44q58 -135 96 -304q84 -570 128 -736q10 0 20 -76v-8q0 -68 -88 -68h-8q-128 0 -128 48q-58 118 -96 300l-88 528h-4q-140 -172 -332 -664q-79 -163 -88 -164q0 12 -40 16h-60q-36 0 -36 36l-48 84q56 201 56 704q85 50 88 60q0 20 16 20 q148 -22 148 -44l-12 -36l4 -4h4q77 72 144 196q110 156 196 156zM609 1623h18q54 0 181 -71q63 -21 94 -21h18q12 0 18 -37q-5 -49 -15 -49q-33 0 -33 -29l3 -7l-3 -3h-15q-232 0 -232 56h-9q-83 0 -154 -136q-34 -46 -67 -46h-21q-152 0 -277 75q-15 46 -15 66v20 q0 56 33 60l24 3q34 0 160 -46l45 -5h18l82 104q69 66 147 66z" />
<glyph unicode="&#xf2;" horiz-adv-x="864" d="M502 865h4q206 0 286 -251q22 -65 22 -148v-36q0 -285 -216 -459q-118 -71 -212 -71h-14q-212 0 -301 272q-21 74 -21 145v21q0 187 53 343q11 15 99 53q18 13 74 89q65 42 226 42zM312 536l3 -32l-7 -190q11 -163 71 -163q85 37 138 131q42 81 42 159v14q0 120 -88 201 q-66 0 -121 -84q-28 -33 -38 -36zM346 1466q88 -117 148 -165q208 -146 208 -223v-12q0 -34 -28 -66l-24 3q-140 0 -140 27q-19 88 -256 232q-74 26 -104 153l88 90q60 0 108 -39z" />
<glyph unicode="&#xf3;" horiz-adv-x="864" d="M502 865h4q206 0 286 -251q22 -65 22 -148v-36q0 -285 -216 -459q-118 -71 -212 -71h-14q-212 0 -301 272q-21 74 -21 145v21q0 187 53 343q11 15 99 53q18 13 74 89q65 42 226 42zM312 536l3 -32l-7 -190q11 -163 71 -163q85 37 138 131q42 81 42 159v14q0 120 -88 201 q-66 0 -121 -84q-28 -33 -38 -36zM614 1505l88 -90q-30 -127 -104 -153q-237 -144 -256 -232q0 -27 -140 -27l-24 -3q-28 32 -28 66v12q0 77 208 223q60 48 148 165q48 39 108 39z" />
<glyph unicode="&#xf4;" horiz-adv-x="864" d="M502 865h4q206 0 286 -251q22 -65 22 -148v-36q0 -285 -216 -459q-118 -71 -212 -71h-14q-212 0 -301 272q-21 74 -21 145v21q0 187 53 343q11 15 99 53q18 13 74 89q65 42 226 42zM312 536l3 -32l-7 -190q11 -163 71 -163q85 37 138 131q42 81 42 159v14q0 120 -88 201 q-66 0 -121 -84q-28 -33 -38 -36zM451 1542h38q58 -109 243 -371q22 -33 22 -45v-3l-16 -51l7 -25l-3 -4h-4q0 7 -22 13l-51 -16q-26 0 -118 106q-58 85 -109 137q-189 -153 -205 -246q0 -29 -111 -29l-20 -3q-22 34 -22 70v13q0 82 166 237q48 52 118 175q39 42 87 42z" />
<glyph unicode="&#xf5;" horiz-adv-x="938" d="M542 865h4q206 0 286 -251q22 -65 22 -148v-36q0 -285 -216 -459q-118 -71 -212 -71h-14q-212 0 -301 272q-21 74 -21 145v21q0 187 53 343q11 15 99 53q18 13 74 89q65 42 226 42zM352 536l3 -32l-7 -190q11 -163 71 -163q85 37 138 131q42 81 42 159v14q0 120 -88 201 q-66 0 -121 -84q-28 -33 -38 -36zM559 1343h18q54 0 181 -71q63 -21 94 -21h18q12 0 18 -37q-5 -49 -15 -49q-33 0 -33 -29l3 -7l-3 -3h-15q-232 0 -232 56h-9q-83 0 -154 -136q-34 -46 -67 -46h-21q-152 0 -276 75q-16 46 -16 66v20q0 56 33 60l24 3q34 0 160 -46l45 -5h18 l82 104q69 66 147 66z" />
<glyph unicode="&#xf6;" horiz-adv-x="864" d="M502 865h4q206 0 286 -251q22 -65 22 -148v-36q0 -285 -216 -459q-118 -71 -212 -71h-14q-212 0 -301 272q-21 74 -21 145v21q0 187 53 343q11 15 99 53q18 13 74 89q65 42 226 42zM312 536l3 -32l-7 -190q11 -163 71 -163q85 37 138 131q42 81 42 159v14q0 120 -88 201 q-66 0 -121 -84q-28 -33 -38 -36zM258 1186h11q81 -19 81 -70v-5q0 -80 -111 -128l-28 -3q-55 0 -78 64l-3 19v12q0 64 67 100zM608 1186h11q81 -19 81 -70v-5q0 -80 -111 -128l-28 -3q-55 0 -78 64l-3 19v12q0 64 67 100z" />
<glyph unicode="&#xf7;" horiz-adv-x="1266" d="M358 839h35q78 0 521 -45l80 -4q51 0 170 19q84 0 84 -146q-17 -47 -92 -98q-18 -15 -66 -23q-29 4 -37 12q-53 -12 -125 -12h-45q-59 0 -474 38h-58q-120 0 -235 -34l-72 68l-2 3v19q9 30 22 30q-22 29 -22 49q0 9 8 26l-2 19q0 41 234 75zM647 461h15q107 -25 107 -92 v-8q0 -104 -147 -168l-37 -4q-72 0 -103 84l-3 26v15q0 84 88 132zM670 1206h15q112 -26 112 -95v-8q0 -109 -154 -176l-38 -4q-75 0 -107 88l-4 27v15q0 88 92 138z" />
<glyph unicode="&#xf8;" horiz-adv-x="874" d="M546 653q-20 22 -46 43q-90 0 -165 -100q-38 -39 -52 -43l5 -38l-10 -215l261 343q4 5 7 10zM613 523l-294 -393q0 -1 -1 -1q23 -34 57 -34q115 44 188 156q57 96 57 189v17q0 34 -7 66zM125 68q-25 46 -44 104q-21 74 -21 145v21q0 187 53 343q11 15 99 53q18 13 74 89 q65 42 226 42h4q83 0 145 -41q17 28 26 48q31 43 58 43h7q22 0 41 -32q0 -65 -42 -154q30 -49 51 -115q22 -65 22 -148v-36q0 -285 -216 -459q-118 -71 -212 -71h-14q-100 0 -173 61q-28 -47 -47 -86q-57 -35 -64 -35h-4q-7 4 -7 16v5l4 18l-21 -4q-12 6 -12 20l2 2 q-7 0 -10 9v5q16 56 75 157z" />
<glyph unicode="&#xf9;" horiz-adv-x="992" d="M634 794h20q75 0 116 -64q35 -374 116 -608q56 -65 56 -128v-32q0 -34 -24 -52h-52q-150 0 -248 284l-28 44q-173 -195 -260 -248h-4l-40 8q-17 0 -108 -36l-20 -4q-86 0 -104 188l-4 60v44q0 287 124 484q48 52 92 52q55 0 116 -80q0 -58 -68 -280q-12 -41 -12 -108v-16 q91 45 164 240q97 248 132 248zM366 1426q88 -117 148 -165q208 -146 208 -223v-12q0 -34 -28 -66l-24 3q-140 0 -140 27q-19 88 -256 232q-74 26 -104 153l88 90q60 0 108 -39z" />
<glyph unicode="&#xfa;" horiz-adv-x="992" d="M634 794h20q75 0 116 -64q35 -374 116 -608q56 -65 56 -128v-32q0 -34 -24 -52h-52q-150 0 -248 284l-28 44q-173 -195 -260 -248h-4l-40 8q-17 0 -108 -36l-20 -4q-86 0 -104 188l-4 60v44q0 287 124 484q48 52 92 52q55 0 116 -80q0 -58 -68 -280q-12 -41 -12 -108v-16 q91 45 164 240q97 248 132 248zM644 1465l88 -90q-30 -127 -104 -153q-237 -144 -256 -232q0 -27 -140 -27l-24 -3q-28 32 -28 66v12q0 77 208 223q60 48 148 165q48 39 108 39z" />
<glyph unicode="&#xfb;" horiz-adv-x="1002" d="M644 794h20q75 0 116 -64q35 -374 116 -608q56 -65 56 -128v-32q0 -34 -24 -52h-52q-150 0 -248 284l-28 44q-173 -195 -260 -248h-4l-40 8q-17 0 -108 -36l-20 -4q-86 0 -104 188l-4 60v44q0 287 124 484q48 52 92 52q55 0 116 -80q0 -58 -68 -280q-12 -41 -12 -108v-16 q91 45 164 240q97 248 132 248zM514 1612h48q72 -136 304 -464q28 -42 28 -56v-4l-20 -64l8 -32l-4 -4h-4q0 8 -28 16l-64 -20q-32 0 -148 132q-72 107 -136 172q-237 -191 -256 -308q0 -36 -140 -36l-24 -4q-28 42 -28 88v16q0 102 208 296q60 65 148 220q48 52 108 52z " />
<glyph unicode="&#xfc;" horiz-adv-x="992" d="M634 794h20q75 0 116 -64q35 -374 116 -608q56 -65 56 -128v-32q0 -34 -24 -52h-52q-150 0 -248 284l-28 44q-173 -195 -260 -248h-4l-40 8q-17 0 -108 -36l-20 -4q-86 0 -104 188l-4 60v44q0 287 124 484q48 52 92 52q55 0 116 -80q0 -58 -68 -280q-12 -41 -12 -108v-16 q91 45 164 240q97 248 132 248zM318 1176h11q81 -19 81 -70v-5q0 -80 -111 -128l-28 -3q-55 0 -78 64l-3 19v12q0 64 67 100zM668 1176h11q81 -19 81 -70v-5q0 -80 -111 -128l-28 -3q-55 0 -78 64l-3 19v12q0 64 67 100z" />
<glyph unicode="&#xfd;" horiz-adv-x="1128" d="M902 1328q57 0 92 -48q40 -755 40 -1064v-32l40 -568l4 -64q-5 -396 -312 -528q-67 -24 -136 -24q-254 0 -516 304q-64 84 -64 156q47 48 100 48q41 0 164 -96q14 -12 72 -16l192 -116q40 -16 68 -16h8q125 0 164 224q20 118 20 324q0 336 -76 732q-69 -77 -208 -304 q-128 -136 -180 -136q-59 -28 -168 -28h-16q-64 0 -120 168q-20 97 -20 196q0 251 96 588q48 96 104 96h28q44 0 104 -52v-12q0 -96 -80 -412q-24 -91 -24 -208l4 -68h12q53 0 156 128q17 0 48 88q220 408 220 508q16 55 16 128v8q47 41 80 96h88zM824 1972l88 -120 q-30 -169 -104 -204q-237 -191 -256 -308q0 -36 -140 -36l-24 -4q-28 42 -28 88v16q0 102 208 296q60 65 148 220q48 52 108 52z" />
<glyph unicode="&#xfe;" horiz-adv-x="1083" d="M394 961l3 -32l-8 -190q14 -163 90 -163q108 37 176 131q53 81 53 159v14q0 120 -112 201q-84 0 -154 -84q-36 -33 -48 -36zM343 342q23 -197 63 -434v-52q0 -95 -44 -108q-33 0 -120 -28q-26 26 -80 60q-108 683 -108 1120v140q0 296 28 720l12 204q69 52 124 52h16 q76 0 76 -64q28 -147 28 -320l-16 -411l26 27q83 42 288 42h5q262 0 364 -251q28 -65 28 -148v-36q0 -285 -275 -459q-150 -71 -270 -71h-18q-69 0 -127 17z" />
<glyph unicode="&#xff;" horiz-adv-x="1128" d="M902 1328q57 0 92 -48q40 -755 40 -1064v-32l40 -568l4 -64q-5 -396 -312 -528q-67 -24 -136 -24q-254 0 -516 304q-64 84 -64 156q47 48 100 48q41 0 164 -96q14 -12 72 -16l192 -116q40 -16 68 -16h8q125 0 164 224q20 118 20 324q0 336 -76 732q-69 -77 -208 -304 q-128 -136 -180 -136q-59 -28 -168 -28h-16q-64 0 -120 168q-20 97 -20 196q0 251 96 588q48 96 104 96h28q44 0 104 -52v-12q0 -96 -80 -412q-24 -91 -24 -208l4 -68h12q53 0 156 128q17 0 48 88q220 408 220 508q16 55 16 128v8q47 41 80 96h88zM368 1686h11 q81 -19 81 -70v-5q0 -80 -111 -128l-28 -3q-55 0 -78 64l-3 19v12q0 64 67 100zM718 1686h11q81 -19 81 -70v-5q0 -80 -111 -128l-28 -3q-55 0 -78 64l-3 19v12q0 64 67 100z" />
<glyph unicode="&#x152;" horiz-adv-x="2475" d="M514 1410l-64 12h-16q-25 -6 -76 -172q-52 -207 -52 -392q18 -613 308 -776q66 -28 112 -28h16q156 0 256 232q40 127 40 264v48q0 356 -180 728q-136 212 -224 212h-12q-64 0 -104 -128h-4zM934 1640q63 33 160 54q8 0 72 72q10 0 84 64h8q101 0 188 -100h8 q117 0 392 92q69 24 140 24h20q83 0 120 -32v-32q0 -221 -504 -276q-292 -28 -292 -48q-44 -124 -44 -296v-44q474 120 716 120q180 -6 180 -24v-32q0 -25 20 -44q-49 -87 -216 -140q-120 -28 -512 -76q-80 -20 -164 -52q72 -316 164 -552l44 -96l20 -4q127 0 468 164 q358 156 568 156q148 -8 148 -24v-132q0 -9 -160 -32q-438 -109 -796 -392q-140 -88 -244 -88h-44q-153 0 -252 288q-7 16 -13 34q-34 -94 -87 -174q-184 -208 -400 -208h-44q-255 0 -456 300q-176 303 -176 688v60q0 476 180 780q92 98 188 112q138 28 224 28h16 q152 0 276 -138z" />
<glyph unicode="&#x153;" horiz-adv-x="1543" d="M312 536l3 -32l-7 -190q11 -163 71 -163q85 37 138 131q42 81 42 159v14q0 120 -88 201q-66 0 -121 -84q-28 -33 -38 -36zM818 523q0 -102 57 -142q40 0 119 61q14 39 14 67q0 105 -92 143l-27 3q-51 0 -51 -34q-20 -34 -20 -98zM738 131q-52 -89 -140 -160 q-118 -71 -212 -71h-14q-212 0 -301 272q-21 74 -21 145v21q0 187 53 343q11 15 99 53q18 13 74 89q65 42 226 42h4q117 0 194 -81q8 4 16 7q118 64 207 64q176 0 288 -230q20 -73 20 -112q0 -170 -264 -275v-3q69 -119 183 -119q152 0 328 248q105 118 163 118h7l7 -6v-34 l-4 -14q4 -11 14 -13q21 0 30 37h7v-4q0 -57 -102 -189q-15 -29 -23 -68q-48 -9 -48 -37q-93 -155 -281 -220q-56 -14 -98 -14h-34q-190 0 -378 211z" />
<glyph unicode="&#x178;" horiz-adv-x="1635" d="M1170 2040h8l41 -15h60q74 0 74 -75q64 -293 146 -956q86 -511 86 -963v-60q0 -387 -250 -728q-177 -209 -422 -209h-11q-414 0 -721 527q-131 238 -131 458v27q0 187 138 269l26 3q15 0 30 -30h19q21 0 52 -227q52 -256 112 -373q247 -437 452 -437q104 0 247 160 q190 253 190 747q-17 462 -60 504q-30 123 -74 489q-6 0 -127 -220q-249 -426 -594 -426q-226 0 -288 179q-18 77 -18 183q0 269 194 702q85 142 175 142h23q81 0 127 -71l7 -44q0 -51 -78 -176q-120 -271 -120 -508q8 -142 15 -142q167 49 351 377q80 151 157 419 q41 151 75 407q10 11 30 11zM496 1856v-12l-12 4v4zM658 2386h11q81 -19 81 -70v-5q0 -80 -111 -128l-28 -3q-55 0 -78 64l-3 19v12q0 64 67 100zM1008 2386h11q81 -19 81 -70v-5q0 -80 -111 -128l-28 -3q-55 0 -78 64l-3 19v12q0 64 67 100z" />
<glyph unicode="&#x2c6;" horiz-adv-x="944" d="M514 1972h48q72 -136 304 -464q28 -42 28 -56v-4l-20 -64l8 -32l-4 -4h-4q0 8 -28 16l-64 -20q-32 0 -148 132q-72 107 -136 172q-237 -191 -256 -308q0 -36 -140 -36l-24 -4q-28 42 -28 88v16q0 102 208 296q60 65 148 220q48 52 108 52z" />
<glyph unicode="&#x2dc;" horiz-adv-x="909" d="M542 1890h17q52 0 175 -67q60 -20 90 -20h18q11 0 17 -35q-4 -46 -15 -46q-32 0 -32 -27l3 -7l-3 -3h-14q-224 0 -224 53h-9q-79 0 -148 -128q-33 -44 -64 -44h-21q-147 0 -267 71q-15 43 -15 62v19q0 53 32 57l23 2q33 0 155 -43l43 -5h18l78 99q67 62 143 62z" />
<glyph unicode="&#x2000;" horiz-adv-x="1326" />
<glyph unicode="&#x2001;" horiz-adv-x="2652" />
<glyph unicode="&#x2002;" horiz-adv-x="1326" />
<glyph unicode="&#x2003;" horiz-adv-x="2652" />
<glyph unicode="&#x2004;" horiz-adv-x="884" />
<glyph unicode="&#x2005;" horiz-adv-x="663" />
<glyph unicode="&#x2006;" horiz-adv-x="442" />
<glyph unicode="&#x2007;" horiz-adv-x="442" />
<glyph unicode="&#x2008;" horiz-adv-x="331" />
<glyph unicode="&#x2009;" horiz-adv-x="530" />
<glyph unicode="&#x200a;" horiz-adv-x="147" />
<glyph unicode="&#x2010;" d="M335 725q198 0 731 -45q24 -33 24 -76v-4q0 -80 -79 -139l-642 31l-231 -13q-88 0 -88 70v10q0 82 88 146q53 20 148 20h49z" />
<glyph unicode="&#x2011;" d="M335 725q198 0 731 -45q24 -33 24 -76v-4q0 -80 -79 -139l-642 31l-231 -13q-88 0 -88 70v10q0 82 88 146q53 20 148 20h49z" />
<glyph unicode="&#x2012;" d="M335 725q198 0 731 -45q24 -33 24 -76v-4q0 -80 -79 -139l-642 31l-231 -13q-88 0 -88 70v10q0 82 88 146q53 20 148 20h49z" />
<glyph unicode="&#x2013;" d="M286 724h48q190 0 732 -44q24 -35 24 -76v-4q0 -80 -80 -140l-640 32l-200 -12h-32q-88 0 -88 68v12q0 79 88 144q56 20 148 20z" />
<glyph unicode="&#x2014;" horiz-adv-x="1890" d="M519 686h52q115 0 774 -48l118 -4q75 0 252 20q125 0 125 -156q-25 -50 -136 -104q-28 -16 -99 -24q-43 4 -55 12q-78 -12 -185 -12h-67q-87 0 -703 40h-87q-178 0 -348 -36l-107 72l-3 4v20q14 32 32 32q-32 31 -32 52q0 10 12 28l-3 20q0 44 347 80z" />
<glyph unicode="&#x2018;" horiz-adv-x="515" d="M153 1949l14 6q30 14 52 14q33 0 49 -33l85 -169l23 -48q89 -187 89 -313q0 -76 -33 -130q-36 -43 -73 -60q-23 18 -121 211l-42 98q-84 166 -146 261q5 116 103 163z" />
<glyph unicode="&#x2019;" horiz-adv-x="575" d="M453 1933l13 -6q59 -24 59 -63q0 -12 -5 -25l-67 -176l-20 -49q-126 -309 -290 -340h-13q-47 0 -80 13v2q0 35 74 230l44 97q66 174 95 284q57 48 120 48q34 0 70 -15z" />
<glyph unicode="&#x201a;" horiz-adv-x="575" d="M453 433l13 -6q59 -24 59 -63q0 -12 -5 -25l-67 -176l-20 -49q-126 -309 -290 -340h-13q-47 0 -80 13v2q0 35 74 230l44 97q66 174 95 284q57 48 120 48q34 0 70 -15z" />
<glyph unicode="&#x201c;" horiz-adv-x="826" d="M178 1929l7 2q85 -59 143 -254l7 -23l99 -380q-19 -117 -84 -136l-23 -7h-2q-84 0 -116 108q-13 152 -23 186l-1 3q-15 52 -117 286l-10 33q-8 27 -8 50q0 94 128 132zM522 1921q28 6 46 6q22 0 30 -9q55 -151 91 -272l10 -33q77 -274 77 -334q0 -15 -5 -16 q-55 -69 -74 -75q-4 -1 -8 -1q-78 0 -215 391l-10 32q-34 114 -34 183q0 60 26 86q27 30 66 42z" />
<glyph unicode="&#x201d;" horiz-adv-x="901" d="M445 1906l6 -3q10 -29 10 -67q0 -88 -53 -221l-8 -22l-155 -362q-66 -61 -119 -61q-17 0 -32 6l-22 9q-42 32 -42 85q0 32 15 72q84 129 97 161l1 3q19 50 83 298l12 32q35 89 119 89q39 0 88 -19zM793 1867q57 -27 58 -49q-49 -153 -95 -271l-12 -31 q-131 -321 -158 -321h-1q-64 -16 -90 -16q-9 0 -14 2q-27 11 -27 69q0 108 90 376l12 31q81 207 159 218q12 2 25 2q26 0 53 -10z" />
<glyph unicode="&#x201e;" horiz-adv-x="901" d="M435 516l6 -3q10 -29 10 -67q0 -88 -53 -221l-8 -22l-155 -362q-66 -61 -119 -61q-17 0 -32 6l-22 9q-42 32 -42 85q0 32 15 72q84 129 97 161l1 3q19 50 83 298l12 32q35 89 119 89q39 0 88 -19zM793 497q57 -27 58 -49q-49 -153 -95 -271l-12 -31q-131 -321 -158 -321 h-1q-64 -16 -90 -16q-9 0 -14 2q-27 11 -27 69q0 108 90 376l12 31q81 207 159 218q12 2 25 2q26 0 53 -10z" />
<glyph unicode="&#x2022;" horiz-adv-x="589" d="M319 995h50q18 0 86 -86q84 -84 84 -160v-10q0 -120 -80 -236q-65 -53 -153 -53h-17q-163 0 -229 143q-10 21 -10 53v13q0 24 33 186v37q115 113 236 113zM219 731q20 -117 107 -117h15q31 19 31 61q-6 137 -31 137h-40q-82 0 -82 -81z" />
<glyph unicode="&#x2026;" horiz-adv-x="1806" d="M234 246h16q116 -27 116 -100v-8q0 -114 -160 -184l-40 -4q-78 0 -112 92l-4 28v16q0 92 96 144zM934 246h16q116 -27 116 -100v-8q0 -114 -160 -184l-40 -4q-78 0 -112 92l-4 28v16q0 92 96 144zM1624 246h16q116 -27 116 -100v-8q0 -114 -160 -184l-40 -4 q-78 0 -112 92l-4 28v16q0 92 96 144z" />
<glyph unicode="&#x202f;" horiz-adv-x="530" />
<glyph unicode="&#x2039;" horiz-adv-x="682" d="M542 820q0 -27 -5 -44q0 -16 -57 -62q-195 -143 -259 -205v-4q13 0 183 -171q220 -231 228 -246v-6q0 -91 -90 -112q-7 0 -75 65q-221 239 -329 321q-88 48 -88 140v28q0 59 81 131q185 152 363 277q48 -32 48 -112z" />
<glyph unicode="&#x203a;" horiz-adv-x="682" d="M188 932q178 -125 363 -277q81 -72 81 -131v-28q0 -92 -88 -140q-108 -82 -329 -321q-68 -65 -75 -65q-90 21 -90 112v6q8 15 228 246q170 171 183 171v4q-64 62 -259 205q-57 46 -57 62q-5 17 -5 44q0 80 48 112z" />
<glyph unicode="&#x205f;" horiz-adv-x="663" />
<glyph unicode="&#x20ac;" horiz-adv-x="1576" d="M319 302q-72 -21 -140 -48l-99 22l-4 2l-3 12q5 20 19 23q-32 12 -36 24v3q0 6 5 15l-7 11v1q0 23 206 87q-12 38 -14 56l-68 -4q-124 0 -124 28l-4 16v20q0 84 208 156q151 345 496 520q212 100 420 100h60q179 0 244 -128v-32q0 -76 -192 -92l-108 12q-334 0 -584 -276 v-4q159 20 516 88q111 16 192 16q91 0 124 -52q-31 -82 -132 -98q-160 -72 -240 -72q-342 -48 -468 -80l-44 -16q0 -49 10 -90q159 28 522 86l95 18q60 13 197 55q19 4 36 4q70 0 94 -71q-10 -33 -89 -82q-19 -14 -74 -31q-25 -4 -38 -4q-5 0 -8 1q-60 -20 -145 -38l-54 -12 q-59 -13 -429 -75q153 -103 355 -103h16q111 0 340 120q74 36 120 36h20q16 0 16 -56q0 -209 -396 -344q-99 -28 -208 -28h-20q-352 0 -576 288q-3 8 -7 16z" />
<glyph unicode="&#x2122;" horiz-adv-x="1360" d="M1022 1648h21q23 -26 43 -93q19 -82 77 -237q73 -227 138 -315q9 -12 9 -22v-4q-7 -32 -32 -32l-11 -1q-52 0 -93 112q-41 84 -130 337l-17 44h-1q-20 -75 -45 -246q-38 -164 -38 -215q-13 -4 -13 -17q0 -5 -41 -13h-12q-13 0 -18 16q-11 26 -21 108l-36 204 q-20 82 -45 131l-5 9h-1q-22 -57 -49 -231q-14 -78 -30 -94q-14 -14 -33 -14h-8q-24 0 -24 15q-6 22 -6 43l3 72q0 13 -11 68v8q0 35 39 35l5 -2q13 28 44 152q29 90 76 90q58 0 99 -157q15 -42 41 -173h1q21 53 39 157q28 200 54 262zM569 1544h14q45 0 57 -22l1 -7v-3 q0 -43 -178 -63h-2l-48 1l-14 -1q-9 -73 -9 -128l11 -226v-67q0 -22 -10 -26q-34 -12 -58 -12q-28 86 -28 220q-4 50 -4 95v10l3 120q-18 8 -53 8l-125 -4h-22q-54 0 -54 17v7q0 25 32 46q91 16 230 16q99 0 225 18z" />
<glyph unicode="&#xe000;" horiz-adv-x="795" d="M0 795h795v-795h-795v795z" />
<glyph unicode="&#xf001;" horiz-adv-x="1365" d="M1071 758q-48 -6 -105 -6h-244q-85 0 -128 -16q52 -714 108 -952l-12 -8h-4q-14 0 -40 20l-32 -76h-20q-26 0 -96 48q-48 0 -48 60q-39 117 -76 748q-17 128 -24 128l-244 44q-46 21 -56 36v116q0 11 84 24q114 52 192 52h4v4q0 542 184 744q78 20 160 20h32 q368 0 520 -404q36 -108 36 -152q-27 -84 -140 -84h-44l-40 -4q-39 156 -84 240q-107 180 -196 180h-16q-114 0 -136 -212l-20 -320q129 -15 564 -32q124 -17 124 -32q0 -20 24 -48v-8q-14 0 -23 -10q40 -241 40 -512v-116l-8 -432q-31 -24 -96 -36l-32 -32h-4q-35 0 -64 52 q0 -24 -8 -24q-60 53 -60 232l36 492q-8 99 -8 276z" />
<glyph unicode="&#xfb01;" horiz-adv-x="1365" d="M1071 758q-48 -6 -105 -6h-244q-85 0 -128 -16q52 -714 108 -952l-12 -8h-4q-14 0 -40 20l-32 -76h-20q-26 0 -96 48q-48 0 -48 60q-39 117 -76 748q-17 128 -24 128l-244 44q-46 21 -56 36v116q0 11 84 24q114 52 192 52h4v4q0 542 184 744q78 20 160 20h32 q368 0 520 -404q36 -108 36 -152q-27 -84 -140 -84h-44l-40 -4q-39 156 -84 240q-107 180 -196 180h-16q-114 0 -136 -212l-20 -320q129 -15 564 -32q124 -17 124 -32q0 -20 24 -48v-8q-14 0 -23 -10q40 -241 40 -512v-116l-8 -432q-31 -24 -96 -36l-32 -32h-4q-35 0 -64 52 q0 -24 -8 -24q-60 53 -60 232l36 492q-8 99 -8 276z" />
<glyph unicode="&#xf002;" horiz-adv-x="1337" d="M989 1507q-150 13 -231 13h-16q-114 0 -136 -212l-20 -320q129 -15 164 -32q124 -17 124 -32q0 -20 24 -48v-8q-28 0 -36 -44q-93 -60 -159 -66t-109 -22q52 -714 108 -952l-12 -8h-4q-14 0 -72 -56h-20q-26 0 -96 48q-48 0 -48 60q-39 117 -76 748q-17 128 -24 128 l-244 44q-46 21 -56 36v116q0 11 84 24q114 52 192 52h4v4q0 542 184 744q78 20 160 20h32l420 -4q64 -9 78 -78q24 -130 24 -282l-24 -644v-67q0 -302 83 -807v-45q0 -84 -38 -95q-28 0 -103 -25q-23 23 -69 53q-94 601 -94 986v123q0 260 25 634z" />
<glyph unicode="&#xfb02;" horiz-adv-x="1337" d="M989 1507q-150 13 -231 13h-16q-114 0 -136 -212l-20 -320q129 -15 164 -32q124 -17 124 -32q0 -20 24 -48v-8q-28 0 -36 -44q-93 -60 -159 -66t-109 -22q52 -714 108 -952l-12 -8h-4q-14 0 -72 -56h-20q-26 0 -96 48q-48 0 -48 60q-39 117 -76 748q-17 128 -24 128 l-244 44q-46 21 -56 36v116q0 11 84 24q114 52 192 52h4v4q0 542 184 744q78 20 160 20h32l420 -4q64 -9 78 -78q24 -130 24 -282l-24 -644v-67q0 -302 83 -807v-45q0 -84 -38 -95q-28 0 -103 -25q-23 23 -69 53q-94 601 -94 986v123q0 260 25 634z" />
<glyph unicode="&#xfb03;" horiz-adv-x="1970" d="M879 1447q-64 73 -121 73h-16q-114 0 -136 -212l-20 -320q63 -7 199 -15q22 3 41 3h4v4q0 278 49 467zM1760 1339h24q101 0 124 -52l12 -44v-4q0 -81 -164 -108h-28q-120 11 -120 72l-4 16v24q32 96 156 96zM1655 774q-78 -22 -189 -22h-244q-85 0 -128 -16 q52 -714 96 -960h-4q-14 0 -72 -56h-20q-26 0 -96 48q-48 0 -48 60q-39 117 -76 748q-17 128 -24 128l-225 41q-17 -4 -31 -9q32 -514 88 -752l-88 -64h-20q-26 0 -96 48q-48 0 -48 60q-39 117 -56 548q-17 128 -24 128l-244 44q-46 21 -56 36v116q0 11 84 24q114 52 192 52 h4v4q0 542 184 744q78 20 160 20h32q150 0 246 -106q28 49 62 86q78 20 160 20h32l460 -54q36 -108 36 -152q-27 -84 -140 -84h-44l-40 -4q-131 70 -220 70h-16q-114 0 -136 -212l-3 -43l-10 -161l-7 -116q129 -15 564 -32q52 -7 82 -14q18 5 39 5q80 0 80 -35 q48 -230 48 -492v-102l-8 -380q-31 -21 -96 -32l-32 -28h-4q-35 0 -64 46q0 -21 -8 -21q-60 46 -60 204l36 432q-7 85 -8 235z" />
<glyph unicode="&#xfb04;" horiz-adv-x="1856" d="M879 1447q-64 73 -121 73h-16q-114 0 -136 -212l-20 -320q63 -7 199 -15q22 3 41 3h4v4q0 278 49 467zM1258 1520h-16q-114 0 -136 -212l-3 -43l-10 -161l-7 -116q129 -15 244 -32q124 -17 124 -32q0 -20 24 -48v-8q-28 0 -36 -44q-95 -72 -176 -72h-44q-85 0 -128 -16 q52 -714 96 -960h-4q-14 0 -72 -56h-20q-26 0 -96 48q-48 0 -48 60q-39 117 -76 748q-17 128 -24 128l-225 41q-17 -4 -31 -9q32 -514 88 -752l-88 -64h-20q-26 0 -96 48q-48 0 -48 60q-39 117 -56 548q-17 128 -24 128l-244 44q-46 21 -56 36v116q0 11 84 24q114 52 192 52 h4v4q0 542 184 744q78 20 160 20h32q150 0 246 -106q28 49 62 86q78 20 160 20h32q306 0 375 -86q42 29 77 29h13q59 0 59 -54q23 -123 23 -268l-23 -614v-63q0 -288 76 -768v-44q0 -80 -35 -91q-26 0 -94 -23q-20 22 -63 50q-85 573 -85 939v118q0 248 41 516 q-10 0 -21.5 53.5t-290.5 81.5z" />
</font>
</defs>
</svg>
